<svg xmlns="http://www.w3.org/2000/svg" style="display: none;"><symbol id="shocked" viewBox="0 0 512 512"><title>shocked</title><path style="fill:#FFE17D;" d="M480.452,231.952C480.452,355.913,353.398,504.5,256,504.5S31.548,355.913,31.548,231.952 S132.039,7.5,256,7.5S480.452,107.99,480.452,231.952z"/><path style="fill:#FFD164;" d="M304.097,488.468c-97.398,0-224.452-156.604-224.452-280.565 c0-78.304,40.123-147.207,100.906-187.367C93.713,51.531,31.548,134.466,31.548,231.952C31.548,355.912,158.602,504.5,256,504.5 c19.859,0,40.95-6.261,61.947-17.147C313.282,488.018,308.648,488.468,304.097,488.468z"/><path style="fill:#9C6846;" d="M256,440.371L256,440.371c-26.563,0-48.097-21.534-48.097-48.097v-40.081 c0-26.563,21.534-48.097,48.097-48.097l0,0c26.563,0,48.097,21.534,48.097,48.097v40.081 C304.097,418.837,282.563,440.371,256,440.371z"/><g> <path style="fill:#FFD164;" d="M84.592,322.346L84.592,322.346c-15.222,3.044-24.582,18.399-20.28,33.314 c8.245,28.582,19.776,76.046,22.67,125.997c0.741,12.788,11.169,22.843,23.978,22.843h53.291c15.083,0,26.455-13.673,23.646-28.492 c-7.337-38.714-27.598-107.784-81.852-148.686C99.918,322.702,92.117,320.841,84.592,322.346z"/> <path style="fill:#FFD164;" d="M427.408,322.346L427.408,322.346c15.222,3.044,24.582,18.399,20.28,33.314 c-8.245,28.582-19.776,76.046-22.67,125.997c-0.741,12.788-11.169,22.843-23.978,22.843h-53.291 c-15.083,0-26.455-13.673-23.646-28.492c7.337-38.714,27.598-107.784,81.852-148.686 C412.082,322.702,419.883,320.841,427.408,322.346z"/> </g><path style="fill:#C4DEFF;" d="M256,167.823c89.102,0,168.442,41.585,219.836,106.349c2.952-14.218,4.615-28.374,4.615-42.22 C480.452,107.99,379.961,7.5,256,7.5S31.548,107.99,31.548,231.952c0,13.845,1.664,28.002,4.615,42.22 C87.558,209.407,166.898,167.823,256,167.823z"/><path style="fill:#A5CDFF;" d="M79.645,207.903c0-78.304,40.123-147.207,100.906-187.367 C93.713,51.531,31.548,134.466,31.548,231.952c0,13.845,1.664,28.001,4.615,42.219v0.001c13.17-16.596,28.198-31.64,44.732-44.882 C80.107,222.082,79.645,214.935,79.645,207.903z"/><g> <path style="fill:#FFFFFF;" d="M325.062,154.046L325.062,154.046c27.538-8.351,56.632,7.203,64.983,34.742l9.305,30.685 c8.351,27.538-7.203,56.632-34.742,64.983l0,0c-27.538,8.351-56.632-7.203-64.983-34.742l-9.305-30.685 C281.97,191.491,297.524,162.397,325.062,154.046z"/> <path style="fill:#FFFFFF;" d="M186.938,154.046L186.938,154.046c-27.538-8.351-56.632,7.203-64.983,34.742l-9.305,30.685 c-8.351,27.538,7.203,56.632,34.742,64.983l0,0c27.538,8.351,56.632-7.203,64.983-34.742l9.305-30.685 C230.03,191.491,214.476,162.397,186.938,154.046z"/> </g><g> <path style="fill:#FFC350;" d="M140.317,480.452c-11.988,0-21.747-8.385-22.441-19.047c-2.709-41.649-13.501-81.224-21.217-105.056 c-3.435-10.61,2.483-21.43,13.129-25.972c-1.259-1.01-2.445-2.077-3.742-3.055c-6.128-4.619-13.929-6.48-21.454-4.975 c-15.222,3.045-24.582,18.399-20.28,33.314c8.244,28.582,19.776,76.047,22.67,125.997c0.741,12.787,11.168,22.843,23.977,22.843 h53.291c13.554,0,24.015-11.056,23.978-24.048h-47.911V480.452z"/> <path style="fill:#FFC350;" d="M392.3,480.452c-15.084,0-26.455-12.601-23.646-26.258c6.735-32.749,24.44-89.015,69.248-127.193 c-3.022-2.221-6.548-3.865-10.494-4.654c-7.525-1.505-15.326,0.356-21.454,4.975c-54.254,40.903-74.515,109.972-81.852,148.686 c-2.809,14.819,8.563,28.492,23.646,28.492h53.291c12.809,0,23.237-10.056,23.977-22.843c0.023-0.405,0.07-0.8,0.095-1.205 L392.3,480.452L392.3,480.452z"/> </g><path style="fill:#7D5046;" d="M256,304.097c-26.563,0-48.097,21.534-48.097,48.097v32.065c0-26.563,21.534-48.097,48.097-48.097 s48.097,21.534,48.097,48.097v-32.065C304.097,325.63,282.563,304.097,256,304.097z"/><path d="M487.952,231.952c0-46.393-13.652-91.169-39.481-129.488c-2.315-3.435-6.976-4.341-10.411-2.027 c-3.435,2.315-4.342,6.977-2.027,10.411c24.153,35.833,36.919,77.71,36.919,121.104c0,30.161-7.889,63.337-22.918,96.822 c-4.997-7.09-12.587-12.068-21.154-13.782c-9.558-1.91-19.559,0.4-27.439,6.341c-56.498,42.594-77.321,114.316-84.705,153.277 c-0.332,1.753-0.513,3.514-0.548,5.266C294.826,491.23,274.589,497,256,497c-18.598,0-38.83-5.762-60.186-17.116 c-0.035-1.754-0.215-3.517-0.548-5.273c-7.384-38.961-28.207-110.684-84.705-153.278c-7.88-5.941-17.883-8.252-27.439-6.341 c-9.315,1.863-17.483,7.579-22.41,15.681c-4.919,8.091-6.233,17.956-3.605,27.066c8.668,30.05,19.588,76.017,22.389,124.353 C80.467,498.862,94.288,512,110.96,512h53.291c9.445,0,18.313-4.166,24.329-11.429c1.453-1.754,2.692-3.641,3.719-5.62 C214.58,506.256,235.977,512,256,512c20.015,0,41.417-5.744,63.701-17.05c1.026,1.98,2.266,3.866,3.719,5.62 c6.016,7.263,14.884,11.429,24.329,11.429h53.291c16.672,0,30.493-13.138,31.465-29.91c2.801-48.335,13.721-94.302,22.389-124.352 c0.667-2.31,1.077-4.669,1.242-7.036C476.95,310.045,487.952,269.007,487.952,231.952z M177.028,491.002 c-3.157,3.812-7.814,5.998-12.777,5.998H110.96c-8.734,0-15.978-6.93-16.491-15.777c-2.881-49.721-14.071-96.856-22.951-127.642 c-1.49-5.165-0.776-10.534,2.01-15.116c2.793-4.594,7.245-7.707,12.534-8.764c5.364-1.074,11.002,0.242,15.468,3.61 c52.472,39.558,72.017,107.259,78.998,144.094C181.447,482.251,180.171,487.208,177.028,491.002z M440.482,353.581 c-8.88,30.786-20.07,77.921-22.951,127.642C417.018,490.07,409.774,497,401.04,497h-53.291c-4.963,0-9.62-2.186-12.777-5.998 c-3.144-3.795-4.419-8.751-3.5-13.599c6.981-36.834,26.526-104.535,78.998-144.093c3.447-2.599,7.591-3.975,11.769-3.975 c1.235,0,2.475,0.12,3.699,0.365c5.29,1.058,9.741,4.17,12.534,8.764C441.258,343.047,441.972,348.416,440.482,353.581z"/><path d="M39.048,231.952c0-57.95,22.567-112.431,63.543-153.408C143.569,37.567,198.05,15,256,15 c30.797,0,60.551,6.318,88.433,18.78c26.941,12.041,50.802,29.182,70.92,50.946c2.812,3.042,7.557,3.229,10.598,0.417 c3.042-2.812,3.229-7.557,0.417-10.598c-21.503-23.263-47.011-41.585-75.814-54.459C320.733,6.758,288.92,0,256,0 C194.043,0,135.795,24.127,91.985,67.937S24.048,169.995,24.048,231.952c0,25.663,5.184,52.985,15.406,81.207 c1.105,3.051,3.984,4.948,7.052,4.948c0.848,0,1.71-0.145,2.554-0.45c3.895-1.411,5.908-5.711,4.498-9.606 C43.93,281.471,39.048,255.867,39.048,231.952z"/><path d="M129.132,190.962c7.139-23.536,32.094-36.875,55.632-29.737c3.936,1.193,7.67,2.91,11.1,5.101 c3.491,2.229,8.128,1.208,10.358-2.282c2.23-3.49,1.209-8.128-2.282-10.358c-4.586-2.931-9.573-5.224-14.823-6.815 c-31.45-9.541-64.8,8.288-74.339,39.738l-9.307,30.685c-4.621,15.235-3.033,31.358,4.473,45.399 c7.505,14.041,20.03,24.319,35.266,28.94c5.72,1.735,11.563,2.594,17.376,2.594c9.67,0,19.253-2.38,28.023-7.068 c14.041-7.505,24.318-20.03,28.939-35.265l9.307-30.685c3.837-12.653,3.415-25.869-1.223-38.219 c-1.457-3.878-5.78-5.839-9.658-4.385c-3.877,1.456-5.841,5.78-4.385,9.658c3.468,9.235,3.783,19.123,0.911,28.592l-9.307,30.685 c-3.458,11.401-11.149,20.773-21.656,26.39s-22.572,6.807-33.975,3.348c-11.401-3.458-20.774-11.149-26.391-21.657 s-6.806-22.573-3.347-33.975L129.132,190.962z"/><path d="M349.414,294.227c5.812,0,11.658-0.86,17.376-2.594c15.236-4.621,27.76-14.899,35.266-28.94 c7.506-14.041,9.094-30.164,4.473-45.399l-9.307-30.685c-1.976-6.513-5.005-12.573-9.003-18.012 c-2.454-3.337-7.149-4.053-10.485-1.601c-3.337,2.454-4.054,7.148-1.601,10.485c2.988,4.064,5.254,8.6,6.734,13.481l9.307,30.685 c3.458,11.401,2.27,23.467-3.347,33.975c-5.617,10.508-14.989,18.199-26.391,21.657c-23.539,7.14-48.492-6.202-55.631-29.738 l-9.307-30.685c-7.139-23.536,6.202-48.492,29.738-55.631c8.555-2.595,17.57-2.579,26.071,0.048c3.957,1.221,8.157-0.995,9.38-4.952 c1.223-3.958-0.995-8.157-4.952-9.38c-11.372-3.513-23.423-3.536-34.852-0.071c-31.452,9.54-49.278,42.888-39.739,74.339 l9.307,30.685c4.621,15.235,14.898,27.76,28.939,35.265C330.161,291.847,339.742,294.227,349.414,294.227z"/><path d="M256,447.871c30.656,0,55.597-24.94,55.597-55.597v-40.081c0-30.656-24.94-55.597-55.597-55.597 s-55.597,24.94-55.597,55.597v40.081C200.403,422.931,225.344,447.871,256,447.871z M215.403,352.193 c0-22.385,18.211-40.597,40.597-40.597s40.597,18.211,40.597,40.597v40.081c0,22.385-18.211,40.597-40.597,40.597 s-40.597-18.211-40.597-40.597L215.403,352.193L215.403,352.193z"/></symbol><symbol id="strong" viewBox="0 0 512 512"><title>strong</title><path style="fill:#FDC9A6;" d="M329.931,42.667L287.264,8.533h-51.2l-34.133,34.133l25.6,51.2l51.2-8.533 c0,0-51.2,110.933,34.133,162.133v1.297c-29.099,7.936-53.615,26.01-68.966,49.903c-0.631,0.981-1.254,1.98-1.852,2.987 l-3.132-2.987c-21.137-17.86-49.075-28.723-79.701-28.723c-19.029,0-35.183,4.198-51.149,11.657v204.8 c179.473,71.296,357.478-129.562,357.478-129.562S517.664,196.267,329.931,42.667z"/><polygon style="fill:#4799CF;" points="39.797,264.533 108.064,281.6 108.064,486.4 39.797,503.467 "/><g> <path style="fill:#F6BB92;" d="M423.797,302.933c0,0-19.908,108.092-152.175,89.6c0,0-38.4,75.375-163.558,42.667l0,0v51.2 c179.473,71.296,357.478-129.562,357.478-129.562s43.725-135.159-94.003-276.079C397.131,130.935,442.571,234.103,423.797,302.933z "/> <path style="fill:#F6BB92;" d="M218.886,76.578l8.644,17.289l51.2-8.533c0,0-1.621,3.55-3.806,9.583l15.198-30.874 C274.498,79.735,218.886,76.578,218.886,76.578z"/> </g><path style="fill:#277BAA;" d="M108.064,435.2c-0.009,0.009-15.258,17.058-68.267,23.339v44.928l68.267-17.067V435.2z"/><path d="M39.797,512c0.691,0,1.382-0.085,2.065-0.256l65.715-16.427c25.685,9.83,52.668,14.763,80.623,14.763 c54.084,0,111.761-18.287,170.385-54.46c67.234-41.489,111.488-91.025,113.34-93.124c0.785-0.879,1.365-1.911,1.732-3.021 c0.555-1.724,13.559-42.863,2.884-103.595c-9.779-55.569-42.206-138.812-141.286-219.87L292.589,1.877 C291.078,0.657,289.21,0,287.264,0h-51.2c-2.27,0-4.437,0.896-6.033,2.5l-34.133,34.133c-2.603,2.594-3.243,6.562-1.604,9.847 l25.6,51.2c1.673,3.345,5.299,5.231,9.037,4.599l36.617-6.101c-10.214,31.01-26.522,104.815,29.781,149.53 c-22.281,9.097-41.293,24.064-55.049,43.247c-22.835-17.732-51.362-27.546-81.067-27.546c-18.116,0-34.671,3.678-51.772,11.238 l-65.579-16.393c-2.543-0.631-5.239-0.06-7.313,1.553s-3.285,4.096-3.285,6.724v238.933c0,2.628,1.212,5.111,3.285,6.724 C36.06,511.377,37.911,512,39.797,512z M116.597,287.317c14.063-5.897,27.759-8.841,42.615-8.841 c26.735,0,52.369,9.045,72.158,25.097c-6.383,12.271-10.615,25.318-12.305,38.98c-0.58,4.676,2.739,8.934,7.415,9.515 c4.71,0.606,8.943-2.731,9.515-7.415c1.69-13.636,6.195-26.624,13.38-38.63c0.546-0.922,1.118-1.835,1.698-2.739 c14.473-22.528,37.205-38.963,64.026-46.276c3.721-1.015,6.298-4.386,6.298-8.243v-1.297c0-2.995-1.579-5.777-4.139-7.313 c-32.316-19.388-47.445-50.321-44.971-91.955c1.911-32.222,14.063-59.025,14.191-59.298c1.314-2.867,0.947-6.238-0.973-8.747 c-1.92-2.517-5.094-3.78-8.175-3.234l-44.979,7.492l-20.036-40.064l27.281-27.281h44.672l40.26,32.205 c172.578,141.201,138.556,285.167,133.402,303.249c-15.736,17.041-178.765,187.29-341.333,127.846V287.317z M48.331,275.465 l51.2,12.8v191.471l-51.2,12.8V275.465z"/></symbol><symbol id="chat" viewBox="0 0 512 512"><title>chat</title><g><circle cx="296.783" cy="146.519" fill="#fe646f" r="133.878"/></g><g><path d="m430.656 146.521c0 73.938-59.938 133.876-133.876 133.876-24.696 0-47.835-6.685-67.691-18.35 14.937 5.757 31.172 8.92 48.144 8.92 73.938 0 133.876-59.939 133.876-133.876 0-49.242-26.582-92.268-66.185-115.527 50.15 19.329 85.732 67.992 85.732 124.957z" fill="#fd4755"/></g><g><path d="m143.212 85.179c-72.966-.99-133.813 57.398-135.684 130.347-1.298 50.626 25.517 95.1 65.952 118.933 5.188 3.058 8.243 8.84 7.548 14.822-1.726 14.855-13.871 28.081-22.145 35.502-2.429 2.179-.72 6.175 2.536 5.964 36.536-2.37 56.512-17.29 67.36-31.644 2.964-3.922 7.582-6.185 12.499-6.181h.083c73.939 0 133.878-59.939 133.878-133.878-.001-73.32-58.942-132.874-132.027-133.865z" fill="#6ed5a1"/></g><g><path d="m275.237 219.042c0 73.938-59.938 133.876-133.876 133.876h-.08c-4.919 0-9.539 2.265-12.503 6.187-10.846 14.348-30.822 29.276-67.362 31.641-3.253.21-4.959-3.782-2.534-5.967 5.508-4.929 12.722-12.443 17.442-21.293 14.349-6.166 23.957-14.857 30.373-23.349 2.964-3.921 7.583-6.177 12.503-6.177h.08c73.938 0 133.876-59.938 133.876-133.876 0-35.412-13.75-67.612-36.201-91.549 35.193 24.126 58.282 64.617 58.282 110.507z" fill="#46cc8d"/></g><g><path d="m439.789 441.492c40.094-30.842 65.67-79.626 64.7-134.343-1.653-93.295-79.09-166.205-172.325-162.473-88.301 3.535-158.81 76.207-158.871 165.361-.06 87.7 69.038 160.835 156.615 165.487 16.668.885 32.829-.708 48.159-4.428 5.291-1.284 10.817.307 14.684 4.14 11.774 11.669 30.641 22.16 60.773 24.115 3.256.211 4.965-3.785 2.536-5.964-9.176-8.23-23.113-23.599-22.32-40.412.214-4.531 2.453-8.716 6.049-11.483z" fill="#fedf30"/></g><g><path d="m433.739 452.978c-.788 16.813 13.141 32.179 22.321 40.411 2.425 2.175.718 6.177-2.534 5.967-6.446-.419-12.383-1.228-17.841-2.365.459-1.247.229-2.724-.958-3.792-9.469-8.491-23.848-24.346-23.029-41.699.22-4.68 2.524-9 6.236-11.854 41.369-31.82 67.761-82.16 66.754-138.616-1.108-62.922-35.632-116.853-86.281-145.58 61.076 23.359 104.85 81.81 106.087 151.697.968 54.72-24.616 103.503-64.708 134.345-3.592 2.765-5.827 6.956-6.047 11.486z" fill="#fac600"/></g><g><g><circle cx="259.085" cy="310.153" fill="#f2fbff" r="19.792"/></g><g><circle cx="338.904" cy="310.153" fill="#f2fbff" r="19.792"/></g><g><circle cx="418.724" cy="310.153" fill="#f2fbff" r="19.792"/></g></g><g><g><path d="m278.879 310.152c0 10.936-8.861 19.796-19.797 19.796-6.526 0-12.313-3.153-15.905-8.032 10.517-.459 18.899-9.13 18.899-19.757 0-4.41-1.437-8.481-3.882-11.764.289-.02.589-.03.888-.03 10.936 0 19.797 8.861 19.797 19.787z" fill="#c8effe"/></g><g><path d="m358.694 310.152c0 10.936-8.861 19.796-19.787 19.796-6.526 0-12.313-3.153-15.915-8.032 10.527-.459 18.909-9.13 18.909-19.757 0-4.41-1.437-8.481-3.882-11.764.289-.02.589-.03.888-.03 10.926 0 19.787 8.861 19.787 19.787z" fill="#c8effe"/></g><g><path d="m438.519 310.152c0 10.936-8.861 19.796-19.797 19.796-6.526 0-12.313-3.153-15.905-8.032 10.517-.459 18.899-9.13 18.899-19.757 0-4.41-1.437-8.481-3.882-11.764.289-.02.589-.03.888-.03 10.936 0 19.797 8.861 19.797 19.787z" fill="#c8effe"/></g></g><g><path d="m444.351 447.424c20.977-16.136 38.232-37.175 49.899-60.841 12.254-24.857 18.216-51.627 17.721-79.566-.835-47.092-20.038-90.719-54.072-122.843-6.692-6.317-13.801-12.027-21.252-17.126.982-6.703 1.496-13.556 1.496-20.528 0-77.946-63.415-141.361-141.361-141.361-54.283 0-101.495 30.77-125.171 75.771-9.218-2.004-18.682-3.103-28.298-3.233-77.041-1.058-141.294 60.699-143.266 137.637-1.317 51.363 25.365 99.479 69.633 125.572 2.722 1.605 4.258 4.552 3.914 7.511-1.481 12.743-12.983 24.763-19.709 30.795-3.509 3.148-4.598 7.989-2.772 12.333 2.812 6.69 9.636 6.88 15.898 6.248 4.588-.463 9.156-1.15 13.671-2.09 9.965-2.076 19.713-5.399 28.652-10.304 9.875-5.418 18.616-12.787 25.415-21.784 1.542-2.04 3.917-3.209 6.611-3.209 10.618 0 20.959-1.194 30.913-3.426 17.384 61.741 68.319 110.518 133.718 123.143 4.055.788 7.983-1.872 8.766-5.929.783-4.059-1.871-7.984-5.93-8.767-74.249-14.333-128.103-79.681-128.051-155.383.028-41.093 15.743-80.017 44.251-109.6 28.431-29.504 66.586-46.652 107.436-48.287 43.122-1.747 84.022 13.51 115.162 42.903 31.081 29.337 48.618 69.193 49.38 112.224.453 25.531-4.992 49.985-16.181 72.683-10.66 21.622-26.428 40.848-45.6 55.596-5.378 4.137-8.645 10.356-8.961 17.061-.424 8.994 2.35 22.39 16.445 38.041-18.694-2.888-33.694-9.842-44.69-20.741-5.77-5.718-13.888-7.998-21.717-6.097-11.134 2.702-22.621 4.191-34.143 4.424-4.133.083-7.414 3.5-7.331 7.633.083 4.131 3.487 7.452 7.633 7.331 12.609-.254 25.182-1.884 37.372-4.843 2.741-.662 5.601.151 7.651 2.184 15.77 15.631 37.827 24.469 65.558 26.267 4.553.295 8.997-2.408 10.789-6.671 1.826-4.343.737-9.184-2.773-12.332-7.692-6.899-20.498-20.553-19.841-34.489.108-2.306 1.251-4.457 3.135-5.907zm-112.486-310.225c-22.959.919-45.135 6.324-65.497 15.726-4.051-7.615-8.827-14.912-14.32-21.817-2.573-3.234-7.28-3.772-10.516-1.198-3.235 2.573-3.771 7.28-1.198 10.515 4.875 6.129 9.11 12.607 12.709 19.365-14.142 8.096-27.207 18.243-38.794 30.267-31.206 32.384-48.409 74.991-48.44 119.976-.008 11.025 1.039 21.847 3.035 32.366-8.876 1.98-18.096 3.039-27.563 3.039h-.014c-7.228 0-14.129 3.421-18.46 9.154-11.205 14.827-28.198 24.043-50.613 27.478 7.705-8.588 14.835-19.608 16.266-31.925 1.027-8.836-3.362-17.523-11.181-22.132-39.588-23.335-63.449-66.363-62.271-112.295 1.765-68.787 59.222-123.985 128.103-123.057 26.633.362 52 8.908 73.359 24.715 3.323 2.459 8.009 1.759 10.467-1.563 2.458-3.323 1.758-8.009-1.564-10.467-11.987-8.871-25.102-15.696-38.957-20.348 21.64-38.667 62.994-64.873 110.366-64.873 69.694 0 126.394 56.7 126.394 126.394 0 4.004-.211 7.958-.578 11.868-27.357-15.088-58.477-22.482-90.733-21.188z"/><path d="m231.81 310.153c0 15.04 12.235 27.276 27.275 27.276s27.276-12.236 27.276-27.276c0-15.039-12.236-27.275-27.276-27.275s-27.275 12.236-27.275 27.275zm39.584 0c0 6.787-5.522 12.309-12.308 12.309s-12.308-5.522-12.308-12.309 5.522-12.308 12.308-12.308 12.308 5.521 12.308 12.308z"/><path d="m366.18 310.153c0-15.039-12.235-27.275-27.275-27.275s-27.276 12.236-27.276 27.275c0 15.04 12.236 27.276 27.276 27.276 15.039 0 27.275-12.236 27.275-27.276zm-39.584 0c0-6.787 5.522-12.308 12.308-12.308 6.787 0 12.308 5.521 12.308 12.308s-5.521 12.309-12.308 12.309c-6.786 0-12.308-5.522-12.308-12.309z"/><path d="m418.724 337.429c15.04 0 27.275-12.236 27.275-27.276 0-15.039-12.235-27.275-27.275-27.275s-27.276 12.236-27.276 27.275c0 15.04 12.236 27.276 27.276 27.276zm0-39.584c6.786 0 12.308 5.521 12.308 12.308s-5.522 12.309-12.308 12.309c-6.787 0-12.308-5.522-12.308-12.309s5.521-12.308 12.308-12.308z"/></g></symbol><symbol id="caution" viewBox="0 0 512.031 512.031"><title>caution</title><g> <path style="fill:#E5646E;" d="M499.72,422.818L286.674,53.812c-13.626-23.601-47.691-23.601-61.318,0L12.311,422.818 c-13.626,23.601,3.406,53.103,30.659,53.103h426.091C496.313,475.92,513.346,446.418,499.72,422.818z"/> <path style="fill:#FF8086;" d="M499.72,422.818L286.674,53.812c-5.41-9.371-14.053-14.958-23.349-16.887L51.086,403.756 c-8.2,14.203-4.646,33.292,10.63,43.202c5.26,3.413,11.558,4.914,17.828,4.914l422.99,0 C505.658,442.764,505.208,432.324,499.72,422.818z"/> <polygon style="fill:#FFFFFF;" points="447.072,427.823 256.016,96.903 64.959,427.823 "/> <circle style="fill:#E5646E;" cx="256.016" cy="411.791" r="24.048"/> <path style="fill:#E5646E;" d="M264.443,355.678h-16.854c-4.263,0-7.781-3.337-8.005-7.595l-7.172-136.274 c-0.241-4.586,3.412-8.437,8.005-8.437h31.199c4.593,0,8.246,3.851,8.005,8.437l-7.172,136.274 C272.224,352.341,268.706,355.678,264.443,355.678z"/> <path style="fill:#DB4655;" d="M268.541,423.314c-13.282,0-24.048-10.767-24.048-24.048c0-3.392,0.719-6.61,1.986-9.537 c-8.532,3.694-14.511,12.173-14.511,22.062c0,13.282,10.767,24.048,24.048,24.048c9.89,0,18.368-5.979,22.062-14.511 C275.151,422.596,271.933,423.314,268.541,423.314z"/> <path style="fill:#DB4655;" d="M240.416,203.372c-4.593,0-8.247,3.851-8.005,8.437l7.172,136.274 c0.224,4.258,3.741,7.595,8.005,7.595h9.429l-1.002-152.306H240.416z"/> </g><g> <path d="M506.215,419.067L293.169,50.062c-7.755-13.432-21.644-21.45-37.154-21.45s-29.399,8.019-37.154,21.45L5.816,419.067 c-7.755,13.432-7.755,29.47,0,42.901c7.755,13.433,21.645,21.451,37.154,21.451h426.091c15.51,0,29.399-8.019,37.154-21.451 C513.97,448.537,513.97,432.499,506.215,419.067z M493.225,454.469c-5.044,8.736-14.077,13.951-24.164,13.951H42.97 c-10.087,0-19.12-5.215-24.164-13.951c-5.043-8.735-5.043-19.166,0-27.901L231.852,57.562c5.043-8.735,14.077-13.95,24.164-13.95 s19.12,5.215,24.164,13.95l213.045,369.006v0C498.268,435.303,498.268,445.733,493.225,454.469z"/> <path d="M294.565,148.673c-2.071-3.588-6.658-4.816-10.245-2.745c-3.587,2.071-4.816,6.658-2.745,10.245l152.507,264.15h-121.95 c-4.142,0-7.5,3.358-7.5,7.5s3.358,7.5,7.5,7.5h134.94c2.68,0,5.155-1.43,6.495-3.75s1.34-5.18,0-7.5L294.565,148.673z"/> <path d="M199.905,420.323H77.949l178.066-308.421l8.696,15.063c2.071,3.587,6.658,4.816,10.245,2.745 c3.587-2.071,4.816-6.658,2.745-10.245l-15.191-26.313c-1.34-2.32-3.815-3.75-6.495-3.75s-5.156,1.43-6.495,3.75L58.464,424.073 c-1.34,2.32-1.34,5.18,0,7.5s3.815,3.75,6.495,3.75h134.946c4.142,0,7.5-3.358,7.5-7.5S204.047,420.323,199.905,420.323z"/> <path d="M256.016,380.243c-17.396,0-31.548,14.153-31.548,31.548c0,17.396,14.152,31.549,31.548,31.549 s31.548-14.153,31.548-31.549C287.564,394.396,273.412,380.243,256.016,380.243z M256.016,428.34 c-9.125,0-16.548-7.424-16.548-16.549s7.423-16.548,16.548-16.548s16.548,7.423,16.548,16.548S265.141,428.34,256.016,428.34z"/> <path d="M240.417,195.872c-4.237,0-8.34,1.763-11.256,4.836c-2.916,3.074-4.461,7.263-4.239,11.495l7.172,136.274 c0.434,8.243,7.24,14.701,15.495,14.701h16.854c8.255,0,15.061-6.458,15.495-14.701l7.172-136.274 c0.223-4.231-1.323-8.421-4.239-11.495c-2.917-3.074-7.019-4.836-11.256-4.836H240.417z M272.13,211.415l-7.172,136.274 c-0.014,0.274-0.241,0.489-0.516,0.489h-16.854c-0.275,0-0.501-0.215-0.516-0.489l-7.172-136.274 c-0.003-0.055-0.012-0.221,0.141-0.382c0.153-0.161,0.32-0.161,0.375-0.161h31.198c0.055,0,0.222,0,0.375,0.161 C272.142,211.194,272.133,211.36,272.13,211.415z"/> </g></symbol><symbol id="weird" viewBox="0 0 512 512"><title>weird</title><path style="fill:#303C42;" d="M256,0C114.844,0,0,114.844,0,256s114.844,256,256,256s256-114.844,256-256S397.156,0,256,0z"/><path style="fill:#FED600;" d="M256,490.667C126.604,490.667,21.333,385.396,21.333,256S126.604,21.333,256,21.333 S490.667,126.604,490.667,256S385.396,490.667,256,490.667z"/><path style="opacity:0.1;fill:#010101;enable-background:new ;" d="M407.888,77.445C442.798,118.421,464,171.411,464,229.333 C464,358.729,358.729,464,229.333,464c-57.922,0-110.913-21.202-151.888-56.112c43.077,50.563,107.081,82.779,178.555,82.779 c129.396,0,234.667-105.271,234.667-234.667C490.667,184.526,458.451,120.522,407.888,77.445z"/><g> <circle style="fill:#303C42;" cx="170.667" cy="192" r="21.333"/> <circle style="fill:#303C42;" cx="341.333" cy="192" r="21.333"/> <path style="fill:#303C42;" d="M375.24,362.844l-234.667-42.667c-5.75-1.115-11.354,2.781-12.396,8.583 c-1.063,5.792,2.781,11.344,8.583,12.396l234.667,42.667c0.646,0.125,1.281,0.177,1.917,0.177c5.063,0,9.552-3.604,10.479-8.76 C384.885,369.448,381.042,363.896,375.24,362.844z"/> </g><linearGradient id="SVGID_1_" gradientUnits="userSpaceOnUse" x1="-45.5784" y1="639.555" x2="-23.8278" y2="629.4138" gradientTransform="matrix(21.3333 0 0 -21.3333 996.3334 13791.667)"> <stop offset="0" style="stop-color:#FFFFFF;stop-opacity:0.2"/> <stop offset="1" style="stop-color:#FFFFFF;stop-opacity:0"/> </linearGradient><path style="fill:url(#SVGID_1_);" d="M256,0C114.844,0,0,114.844,0,256s114.844,256,256,256s256-114.844,256-256S397.156,0,256,0z"/></symbol><symbol id="coffee-break" viewBox="0 0 512 512"><title>coffee-break</title><circle cx="213.045" cy="213.052" fill="#dd636e" r="205.544"/><path d="m418.589 213.052c0-113.519-92.025-205.544-205.544-205.544-4.453 0-8.868.158-13.25.437 107.342 6.832 192.294 96.041 192.294 205.108v.43c-.047 22.951-18.862 41.451-41.813 41.451h-155.863v118.537c0 25.597 8.868 42.576 9.644 44.919 117.941 5.022 214.532-89.078 214.532-205.338z" fill="#da4a54"/><circle cx="213.045" cy="213.052" fill="#f4fbff" r="157.782"/><path d="m370.827 213.052c0-87.141-70.641-157.782-157.782-157.782-4.3 0-8.558.178-12.771.516 81.167 6.502 145.011 74.425 145.011 157.266 0 .145 0 .29-.001.435-.062 22.956-18.897 41.446-41.853 41.446h-87.069c-12.122 0-21.949 9.827-21.949 21.949v92.851c1.973.232 3.96.415 5.954.576-.031.002-.062.006-.093.009 93.082 7.456 170.553-66.158 170.553-157.266z" fill="#daf1f4"/><path d="m357.099 461.806h-53.85c-48.724 0-88.223-39.499-88.223-88.223v-97.494h230.296v97.494c0 48.724-39.499 88.223-88.223 88.223z" fill="#f4fbff"/><path d="m416.39 276.089v97.494c0 48.724-39.499 88.223-88.223 88.223h28.932c48.724 0 88.223-39.499 88.223-88.223v-97.494z" fill="#daf1f4"/><path d="m413.12 504.492h-165.892c-22.114 0-42.296-12.596-52.011-32.462l-.294-.601c-2.172-4.442 1.062-9.623 6.006-9.623h258.49c4.944 0 8.178 5.181 6.006 9.623l-.294.601c-9.715 19.866-29.897 32.462-52.011 32.462z" fill="#f4fbff"/><path d="m459.419 461.806h-258.49c-4.944 0-8.178 5.182-6.006 9.623l.294.601c1.528 3.124 3.315 6.067 5.327 8.811h224.642c4.945 0 8.178 5.181 6.006 9.623l-.294.601c-2.27 4.641-5.116 8.879-8.42 12.658 18.321-2.998 34.33-14.674 42.653-31.693l.294-.601c2.173-4.442-1.061-9.623-6.006-9.623z" fill="#daf1f4"/><g><path d="m448.082 403.338h13.524c27.788 0 50.395-22.606 50.395-50.395s-22.606-50.395-50.395-50.395h-8.783v-26.46c0-4.143-3.357-7.5-7.5-7.5h-26.571c4.866-18.052 7.337-36.686 7.337-55.537 0-54.785-20.758-106.842-58.449-146.582-2.852-3.007-7.599-3.131-10.603-.28-3.006 2.851-3.131 7.598-.28 10.603 35.036 36.941 54.332 85.332 54.332 136.26 0 18.892-2.666 37.546-7.915 55.537h-34.431c6.356-17.776 9.584-36.406 9.584-55.537 0-91.137-74.145-165.282-165.281-165.282s-165.283 74.146-165.283 165.282c0 18.365 3 36.421 8.917 53.665 1.345 3.92 5.615 6.008 9.527 4.66 3.918-1.344 6.005-5.609 4.66-9.527-5.378-15.675-8.104-32.093-8.104-48.798 0-82.866 67.416-150.282 150.282-150.282 82.865 0 150.281 67.416 150.281 150.282 0 19.218-3.574 37.875-10.614 55.537h-137.686c-4.143 0-7.5 3.357-7.5 7.5v87.135c-51.412-1.906-98.823-30.314-124.704-75.117-2.072-3.587-6.66-4.814-10.246-2.742-3.586 2.071-4.814 6.659-2.742 10.246 28.67 49.63 80.682 80.771 137.807 82.633.559 11.601 3.193 22.666 7.538 32.833-.713.008-1.43.019-2.134.019-109.202 0-198.045-88.842-198.045-198.044s88.843-198.044 198.045-198.044c44.858 0 87.161 14.624 122.335 42.291 3.254 2.561 7.971 1.998 10.531-1.258 2.562-3.256 1.998-7.971-1.258-10.531-37.843-29.767-83.353-45.502-131.608-45.502-117.474 0-213.045 95.572-213.045 213.044s95.571 213.044 213.045 213.044c3.274 0 6.641-.087 10.049-.249 7.458 11.4 17.277 21.121 28.761 28.459h-50.927c-4.927 0-9.425 2.495-12.034 6.675-2.608 4.18-2.874 9.317-.71 13.741l.295.604c10.894 22.273 33.954 36.666 58.748 36.666h72.592c4.143 0 7.5-3.357 7.5-7.5s-3.357-7.5-7.5-7.5h-72.592c-18.896 0-36.484-10.846-44.99-27.686h255.874c-8.508 16.84-26.096 27.686-44.991 27.686h-63.313c-4.143 0-7.5 3.357-7.5 7.5s3.357 7.5 7.5 7.5h63.313c24.795 0 47.855-14.393 58.755-36.677l.287-.59c2.165-4.426 1.9-9.563-.708-13.743-2.608-4.181-7.107-6.676-12.035-6.676h-50.926c18.471-11.801 32.637-29.764 39.589-50.968zm13.523-85.789c19.517 0 35.395 15.878 35.395 35.395s-15.878 35.395-35.395 35.395h-9.921c.748-4.811 1.138-9.738 1.138-14.755v-56.034h8.783zm-104.505 136.757h-53.851c-44.511 0-80.723-36.212-80.723-80.723v-89.994h215.296v89.994c0 44.511-36.212 80.723-80.722 80.723z"/><path d="m213.045 104.085c4.143 0 7.5-3.357 7.5-7.5v-10.602c0-4.143-3.357-7.5-7.5-7.5s-7.5 3.357-7.5 7.5v10.603c0 4.142 3.357 7.499 7.5 7.499z"/><path d="m300.703 136.001 7.497-7.497c2.929-2.93 2.929-7.678 0-10.607-2.93-2.928-7.678-2.928-10.607 0l-7.497 7.497c-2.929 2.93-2.929 7.678 0 10.607 1.465 1.464 3.385 2.196 5.304 2.196s3.838-.732 5.303-2.196z"/><path d="m340.114 220.552c4.143 0 7.5-3.357 7.5-7.5s-3.357-7.5-7.5-7.5h-10.603c-4.143 0-7.5 3.357-7.5 7.5s3.357 7.5 7.5 7.5z"/><path d="m117.89 308.208c2.931 2.929 7.678 2.928 10.607 0l7.497-7.497c2.929-2.93 2.929-7.678 0-10.607-2.93-2.928-7.678-2.928-10.607 0l-7.497 7.497c-2.929 2.929-2.929 7.677 0 10.607z"/><path d="m96.578 220.552c4.143 0 7.5-3.357 7.5-7.5s-3.357-7.5-7.5-7.5h-10.602c-4.143 0-7.5 3.357-7.5 7.5s3.357 7.5 7.5 7.5z"/><path d="m125.387 136.001c1.465 1.464 3.385 2.196 5.304 2.196s3.839-.732 5.304-2.196c2.929-2.93 2.929-7.678 0-10.607l-7.497-7.497c-2.93-2.928-7.678-2.928-10.607 0-2.929 2.93-2.929 7.678 0 10.607z"/><path d="m205.545 216.136c0 3.141 1.957 5.949 4.904 7.036.848.312 1.725.464 2.594.464 2.152 0 4.251-.928 5.705-2.629l27.103-31.729c2.689-3.149 2.317-7.884-.832-10.574-3.15-2.688-7.885-2.316-10.574.832l-13.899 16.272v-50.648c0-4.143-3.357-7.5-7.5-7.5s-7.5 3.357-7.5 7.5v70.976z"/></g></symbol><symbol id="poker-cards" viewBox="0 0 512.008 512.008"><title>poker-cards</title><g id="XMLID_1149_"><path id="XMLID_1155_" d="m24.837 74.881 239.55-64.187c10.669-2.859 21.636 3.473 24.495 14.142l97.316 363.188c2.859 10.669-3.473 21.636-14.142 24.495l-239.55 64.187c-10.669 2.859-21.636-3.473-24.495-14.142l-97.317-363.188c-2.858-10.669 3.473-21.636 14.143-24.495z" fill="#fff"/><path id="XMLID_1154_" d="m161.558 297.697c17.733 10.238 39.937 5.716 52.388-9.753 18.518 7.17 40.007-.014 50.245-17.748 11.317-19.602 4.601-44.667-15.001-55.984l-65.067-37.566-37.566 65.067c-11.317 19.602-4.601 44.666 15.001 55.984z" fill="#6d92ac"/></g><g id="XMLID_1145_"><path id="XMLID_1148_" d="m234.008 86.008h248c11.046 0 20 8.954 20 20v376c0 11.046-8.954 20-20 20h-248c-11.046 0-20-8.954-20-20v-376c0-11.046 8.954-20 20-20z" fill="#fff"/><path id="XMLID_1803_" d="m411.135 251.922c-14.479-14.479-37.096-15.857-53.127-4.139-16.031-11.719-38.648-10.341-53.127 4.139-16.005 16.005-16.005 41.954 0 57.959l53.127 53.127 53.127-53.127c16.005-16.005 16.005-41.954 0-57.959z" fill="#ff7d97"/></g><g id="XMLID_1101_"><path id="XMLID_1121_" d="m93.295 102.498c-2.436-3.336-6.674-4.831-10.664-3.762s-6.913 4.482-7.354 8.59l-6.42 59.695c-.59 5.491 3.382 10.421 8.874 11.012.363.039.724.058 1.081.058 5.043 0 9.379-3.804 9.931-8.932l3.654-33.979 20.153 27.6c3.257 4.46 9.514 5.436 13.974 2.179s5.436-9.513 2.179-13.974z"/><path id="XMLID_1254_" d="m482.008 76.008h-169.063l-14.405-53.76c-2.074-7.74-7.038-14.209-13.978-18.216-6.939-4.007-15.022-5.071-22.765-2.997l-239.549 64.187c-7.74 2.074-14.209 7.038-18.216 13.978-4.006 6.939-5.071 15.024-2.997 22.765l97.316 363.188c2.074 7.74 7.038 14.209 13.978 18.216 4.623 2.669 9.752 4.032 14.951 4.032 2.605 0 5.229-.343 7.813-1.035l68.915-18.465v14.107c0 16.542 13.458 30 30 30h248c16.542 0 30-13.458 30-30v-143c0-5.523-4.477-10-10-10s-10 4.477-10 10v143c0 5.514-4.486 10-10 10h-248c-5.514 0-10-4.486-10-10v-376c0-5.514 4.486-10 10-10h248c5.514 0 10 4.486 10 10v143c0 5.523 4.477 10 10 10s10-4.477 10-10v-143c0-16.542-13.458-30-30-30zm-278 208.053c-9.741 9.77-25.282 12-37.45 4.976-14.795-8.543-19.882-27.529-11.34-42.324l32.566-56.406 16.224 9.367zm0-178.053v70.571l-14.884-8.593c-4.784-2.763-10.899-1.123-13.66 3.66l-37.566 65.066c-6.809 11.793-8.618 25.533-5.093 38.687 3.524 13.154 11.961 24.148 23.754 30.957 8.075 4.662 16.893 6.913 25.605 6.913 7.547 0 15.012-1.696 21.844-4.971v138.897l-74.091 19.853c-2.58.69-5.275.337-7.588-.999-2.313-1.335-3.968-3.492-4.659-6.072l-97.316-363.189c-1.427-5.326 1.745-10.82 7.071-12.248l239.55-64.187c2.579-.691 5.274-.336 7.588.999 2.313 1.335 3.968 3.492 4.659 6.072l13.018 48.583h-58.232c-16.542.001-30 13.459-30 30.001z"/><path id="XMLID_1258_" d="m308.915 199.335c5.151-1.992 7.713-7.782 5.721-12.933l-21.651-56c-1.49-3.854-5.196-6.394-9.327-6.394s-7.837 2.54-9.327 6.394l-21.65 56c-1.992 5.151.57 10.941 5.721 12.933 1.186.459 2.404.676 3.604.676 4.011 0 7.796-2.431 9.329-6.397l12.323-31.875 12.324 31.875c1.991 5.151 7.783 7.715 12.933 5.721z"/><path id="XMLID_1259_" d="m423.03 457.614c1.49 3.853 5.196 6.394 9.327 6.394s7.837-2.54 9.327-6.394l21.65-56c1.992-5.151-.57-10.941-5.721-12.933-5.15-1.99-10.941.57-12.933 5.721l-12.323 31.875-12.324-31.875c-1.991-5.151-7.783-7.715-12.933-5.721-5.151 1.992-7.713 7.782-5.721 12.933z"/><path id="XMLID_1324_" d="m350.937 370.079c1.952 1.953 4.512 2.929 7.071 2.929s5.119-.976 7.071-2.929l53.127-53.127c19.878-19.878 19.878-52.223 0-72.101v-.001c-16.224-16.223-40.583-19.517-60.198-8.876-19.614-10.639-43.975-7.346-60.198 8.876-19.878 19.878-19.878 52.223 0 72.101zm-38.985-111.086c5.961-5.961 13.956-9.019 21.978-9.019 6.379 0 12.776 1.935 18.176 5.882 3.515 2.569 8.288 2.569 11.803 0 12.192-8.911 29.455-7.563 40.154 3.136 12.08 12.081 12.08 31.737 0 43.817l-46.056 46.056-46.056-46.055c-12.079-12.08-12.079-31.737.001-43.817z"/><path id="XMLID_1325_" d="m502.008 284.008c-2.63 0-5.21 1.07-7.07 2.93s-2.93 4.44-2.93 7.07 1.07 5.21 2.93 7.07 4.44 2.93 7.07 2.93 5.21-1.07 7.07-2.93 2.93-4.44 2.93-7.07-1.07-5.21-2.93-7.07-4.44-2.93-7.07-2.93z"/></g></symbol><symbol id="paste" viewBox="-17 0 512 512.00117"><title>paste</title><path d="m332.800781 68.269531v102.398438l-145.066406 298.667969h-153.601563c-14.136718 0-25.597656-11.464844-25.597656-25.601563v-375.464844c0-14.140625 11.460938-25.601562 25.597656-25.601562h273.066407c14.140625 0 25.601562 11.460937 25.601562 25.601562zm0 0" fill="#4e342e"/><path d="m307.199219 68.269531v102.398438l-145.066407 298.667969h-128c-14.136718 0-25.597656-11.464844-25.597656-25.601563v-375.464844c0-14.140625 11.460938-25.601562 25.597656-25.601562h247.46875c14.136719 0 25.597657 11.460937 25.597657 25.601562zm0 0" fill="#795548"/><path d="m258.476562 76.972656v.085938h-174.59375l.085938-.171875 15.785156-30.292969 13.3125-25.429688c4.1875-7.832031 12.371094-12.695312 21.25-12.628906h73.8125c8.875-.050781 17.050782 4.808594 21.246094 12.628906l13.226562 25.429688 15.789063 30.378906zm0 0" fill="#607d8b"/><path d="m281.601562 102.402344c0 14.136718-11.460937 25.597656-25.601562 25.597656h-170.667969c-10.34375-.007812-19.667969-6.246094-23.628906-15.804688-3.957031-9.5625-1.773437-20.5625 5.539063-27.886718 4.039062-4.097656 9.378906-6.664063 15.105468-7.25.507813-.101563 1.019532-.15625 1.535156-.171875h.085938l148.820312.085937h25.6875c13.144532 1.175782 23.199219 12.230469 23.125 25.429688zm0 0" fill="#607d8b"/><path d="m232.789062 76.972656-148.820312-.085937 15.785156-30.292969 13.3125-25.429688c4.1875-7.832031 12.371094-12.695312 21.25-12.628906h48.210938c8.875-.050781 17.054687 4.808594 21.25 12.628906l13.226562 25.429688zm0 0" fill="#cfd8dc"/><path d="m256 102.402344c0 14.136718-11.460938 25.597656-25.597656 25.597656h-145.070313c-10.34375-.007812-19.667969-6.246094-23.628906-15.804688-3.957031-9.5625-1.773437-20.5625 5.539063-27.886718 4.039062-4.097656 9.378906-6.664063 15.105468-7.25h150.527344v-.085938c.203125-.015625.40625.015625.597656.085938 12.898438 1.421875 22.628906 12.367187 22.527344 25.34375zm0 0" fill="#cfd8dc"/><path d="m187.734375 59.734375c0 9.425781-7.640625 17.066406-17.066406 17.066406s-17.066407-7.640625-17.066407-17.066406 7.640626-17.066406 17.066407-17.066406 17.066406 7.640625 17.066406 17.066406zm0 0" fill="#e6e7e8"/><path d="m469.332031 256v221.867188c0 14.140624-11.460937 25.601562-25.597656 25.601562h-230.402344c-14.136719 0-25.597656-11.460938-25.597656-25.601562v-281.597657c0-14.140625 11.460937-25.601562 25.597656-25.601562h162.136719zm0 0" fill="#ff9801"/><path d="m443.734375 256v221.867188c0 14.140624-11.460937 25.601562-25.601563 25.601562h-204.800781c-14.136719 0-25.597656-11.460938-25.597656-25.601562v-281.597657c0-14.140625 11.460937-25.601562 25.597656-25.601562h136.535157zm0 0" fill="#fec108"/><path d="m469.332031 256h-76.796875c-9.425781 0-17.066406-7.640625-17.066406-17.066406v-68.265625zm0 0" fill="#fdd834"/><path d="m170.667969 85.335938c14.136719 0 25.597656-11.464844 25.597656-25.601563s-11.460937-25.601563-25.597656-25.601563c-14.140625 0-25.601563 11.464844-25.601563 25.601563s11.460938 25.601563 25.601563 25.601563zm0-34.136719c4.710937 0 8.53125 3.824219 8.53125 8.535156 0 4.714844-3.820313 8.535156-8.53125 8.535156-4.714844 0-8.535157-3.820312-8.535157-8.535156 0-4.710937 3.820313-8.535156 8.535157-8.535156zm0 0"/><path d="m307.199219 34.132812h-61.4375l-8.839844-16.894531c-5.632813-10.6875-16.757813-17.3359372-28.835937-17.238281h-73.796876c-12.078124-.101562-23.199218 6.550781-28.824218 17.238281l-8.808594 16.894531h-62.523438c-18.851562 0-34.132812 15.285157-34.132812 34.136719v375.464844c0 18.851563 15.28125 34.132813 34.132812 34.132813h145.066407c0 18.851562 15.285156 34.132812 34.132812 34.132812h230.402344c18.851563 0 34.132813-15.28125 34.132813-34.132812v-221.867188c0-.1875-.09375-.347656-.109376-.535156-.046874-.773438-.199218-1.539063-.453124-2.269532-.105469-.292968-.222657-.578124-.359376-.855468-.332031-.667969-.75-1.292969-1.246093-1.851563-.171875-.195312-.289063-.410156-.476563-.589843-.058594-.050782-.085937-.125-.144531-.179688l-93.867187-85.332031c-.675782-.605469-1.445313-1.09375-2.277344-1.449219-.191406-.085938-.402344-.121094-.597656-.1875-.78125-.28125-1.597657-.449219-2.425782-.496094-.152344 0-.28125-.085937-.441406-.085937h-34.136719v-93.898438c0-18.851562-15.28125-34.136719-34.132812-34.136719zm-186.597657-9.019531c2.734376-4.996093 7.992188-8.085937 13.6875-8.046875h73.796876c5.683593-.027344 10.925781 3.0625 13.652343 8.046875l29.140625 55.894531c.222656.320313.46875.621094.734375.90625.234375.339844.492188.664063.777344.960938.535156.558594 1.144531 1.039062 1.808594 1.425781.207031.113281.394531.230469.613281.335938.808594.386719 1.671875.640625 2.5625.75.101562 0 .179688.074219.273438.085937 8.859374 1.101563 15.371093 8.84375 14.941406 17.761719-.433594 8.917969-7.664063 15.992187-16.589844 16.234375h-170.667969c-6.894531-.007812-13.109375-4.167969-15.746093-10.539062-2.636719-6.371094-1.183594-13.707032 3.691406-18.585938 2.71875-2.730469 6.308594-4.425781 10.144531-4.796875.164063 0 .316406.050781.476563.050781 3.1875.003906 6.109374-1.765625 7.578124-4.589844zm-86.46875 435.6875c-9.425781 0-17.066406-7.640625-17.066406-17.066406v-375.464844c0-9.425781 7.640625-17.070312 17.066406-17.070312h53.632813l-9.257813 17.855469c-15.890624 3.179687-27.320312 17.140624-27.308593 33.347656 0 18.851562 15.285156 34.132812 34.132812 34.132812h170.667969c17.25.058594 31.8125-12.800781 33.886719-29.925781 2.074219-17.121094-9-33.085937-25.761719-37.148437l-9.515625-18.261719h52.589844c9.425781 0 17.066406 7.644531 17.066406 17.070312v93.863281h-110.933594c-18.847656 0-34.132812 15.285157-34.132812 34.136719v264.53125zm409.601563 34.132813h-230.402344c-9.421875 0-17.066406-7.640625-17.066406-17.066406v-281.597657c0-9.425781 7.644531-17.070312 17.066406-17.070312h153.601563v59.734375c0 14.140625 11.460937 25.601562 25.601562 25.601562h68.265625v213.332032c0 9.425781-7.640625 17.066406-17.066406 17.066406zm-51.199219-247.464844c-4.714844 0-8.535156-3.820312-8.535156-8.535156v-48.972656l63.257812 57.507812zm0 0"/><path d="m426.667969 281.601562h-196.265625c-4.714844 0-8.535156 3.820313-8.535156 8.53125 0 4.714844 3.820312 8.535157 8.535156 8.535157h196.265625c4.710937 0 8.53125-3.820313 8.53125-8.535157 0-4.710937-3.820313-8.53125-8.53125-8.53125zm0 0"/><path d="m426.667969 324.269531h-196.265625c-4.714844 0-8.535156 3.820313-8.535156 8.53125 0 4.714844 3.820312 8.535157 8.535156 8.535157h196.265625c4.710937 0 8.53125-3.820313 8.53125-8.535157 0-4.710937-3.820313-8.53125-8.53125-8.53125zm0 0"/><path d="m426.667969 366.933594h-196.265625c-4.714844 0-8.535156 3.820312-8.535156 8.535156 0 4.710938 3.820312 8.53125 8.535156 8.53125h196.265625c4.710937 0 8.53125-3.820312 8.53125-8.53125 0-4.714844-3.820313-8.535156-8.53125-8.535156zm0 0"/><path d="m426.667969 409.601562h-196.265625c-4.714844 0-8.535156 3.820313-8.535156 8.53125 0 4.714844 3.820312 8.535157 8.535156 8.535157h196.265625c4.710937 0 8.53125-3.820313 8.53125-8.535157 0-4.710937-3.820313-8.53125-8.53125-8.53125zm0 0"/><path d="m426.667969 452.269531h-196.265625c-4.714844 0-8.535156 3.820313-8.535156 8.53125 0 4.714844 3.820312 8.535157 8.535156 8.535157h196.265625c4.710937 0 8.53125-3.820313 8.53125-8.535157 0-4.710937-3.820313-8.53125-8.53125-8.53125zm0 0"/><path d="m42.667969 145.066406c-4.714844 0-8.535157 3.820313-8.535157 8.535156v25.597657c0 4.714843 3.820313 8.535156 8.535157 8.535156 4.710937 0 8.53125-3.820313 8.53125-8.535156v-25.597657c0-4.714843-3.820313-8.535156-8.53125-8.535156zm0 0"/><path d="m42.667969 204.800781c-4.714844 0-8.535157 3.820313-8.535157 8.535157v119.464843c0 4.714844 3.820313 8.535157 8.535157 8.535157 4.710937 0 8.53125-3.820313 8.53125-8.535157v-119.464843c0-4.714844-3.820313-8.535157-8.53125-8.535157zm0 0"/></symbol><symbol id="wrench" viewBox="0 0 511.978 511.978"><title>wrench</title><path d="m439.828 238.198c36.077-36.077 45.912-88.45 29.523-133.422l-64.669 64.669-59.761-16.013-16.013-59.761 64.669-64.669c-44.972-16.389-97.345-6.553-133.422 29.524-31.436 31.436-42.949 75.246-34.548 115.751 3.97 19.138-2.398 38.946-17.043 51.89l-180.212 159.289c-26.459 22.743-27.984 63.188-3.313 87.859 24.671 24.671 65.115 23.146 87.859-3.313l159.29-180.214c12.944-14.644 32.753-21.012 51.89-17.043 40.504 8.402 84.314-3.111 115.75-34.547z" fill="#e7ecf6"/><path d="m469.352 104.776-11.642 11.642c3.86 36.797-8.305 74.955-36.506 103.156-31.436 31.436-75.246 42.949-115.751 34.548-19.138-3.97-38.946 2.398-51.89 17.043l-159.29 180.213c-19.789 23.022-52.975 27.157-77.515 11.594 2.323 3.664 5.076 7.139 8.281 10.343 24.671 24.671 65.116 23.146 87.858-3.313l159.29-180.214c12.944-14.644 32.753-21.012 51.891-17.043 40.504 8.402 84.314-3.111 115.751-34.548 36.077-36.076 45.912-88.45 29.523-133.421z" fill="#d8e2f1"/><path d="m500.091 315.6-44.807-25.869c-2.714-1.567-6.059-1.567-8.773 0l-44.807 25.869c-2.714 1.567-4.386 4.463-4.386 7.598v51.739c0 3.134 1.672 6.031 4.386 7.598l44.807 25.869c2.714 1.567 6.059 1.567 8.773 0l44.807-25.869c2.714-1.567 4.387-4.464 4.387-7.598v-51.739c0-3.135-1.673-6.031-4.387-7.598zm-49.194 53.65c-11.147 0-20.183-9.037-20.183-20.183 0-11.147 9.037-20.183 20.183-20.183 11.147 0 20.183 9.036 20.183 20.183.001 11.147-9.036 20.183-20.183 20.183z" fill="#365e7d"/><path d="m345.03 376.112-44.807-25.869c-2.714-1.567-6.059-1.567-8.773 0l-44.807 25.869c-2.714 1.567-4.386 4.463-4.386 7.598v51.739c0 3.134 1.672 6.031 4.386 7.598l44.807 25.869c2.714 1.567 6.059 1.567 8.773 0l44.807-25.869c2.714-1.567 4.387-4.464 4.387-7.598v-51.739c-.001-3.135-1.673-6.031-4.387-7.598zm-49.194 53.65c-11.147 0-20.183-9.037-20.183-20.183 0-11.147 9.037-20.183 20.183-20.183 11.147 0 20.183 9.036 20.183 20.183s-9.036 20.183-20.183 20.183z" fill="#365e7d"/><path d="m500.091 315.6-44.807-25.869c-2.715-1.567-6.059-1.567-8.773 0l-7.903 4.563 36.904 21.307c2.714 1.567 4.387 4.463 4.387 7.598v51.739c0 3.134-1.672 6.031-4.387 7.598l-36.904 21.306 7.903 4.563c2.714 1.567 6.059 1.567 8.773 0l44.807-25.869c2.714-1.567 4.387-4.464 4.387-7.598v-51.739c0-3.136-1.673-6.032-4.387-7.599z" fill="#2b4d66"/><path d="m345.03 376.112-44.807-25.869c-2.714-1.567-6.059-1.567-8.773 0l-7.903 4.563 36.903 21.306c2.715 1.567 4.387 4.463 4.387 7.598v51.739c0 3.134-1.672 6.031-4.387 7.598l-36.903 21.307 7.903 4.563c2.714 1.567 6.059 1.567 8.773 0l44.807-25.869c2.715-1.567 4.387-4.464 4.387-7.598v-51.739c-.001-3.136-1.673-6.032-4.387-7.599z" fill="#2b4d66"/><g><path d="m283.929 153.071c-2.929-2.929-7.678-2.93-10.606-.001l-8.242 8.241c-2.93 2.929-2.93 7.678-.001 10.606 1.465 1.465 3.384 2.197 5.304 2.197 1.919 0 3.839-.732 5.303-2.196l8.242-8.241c2.929-2.929 2.929-7.678 0-10.606z"/><path d="m290.835 194.567c1.919 0 3.839-.732 5.304-2.197l8.241-8.242c2.929-2.929 2.929-7.678-.001-10.606-2.928-2.928-7.677-2.929-10.606.001l-8.241 8.242c-2.929 2.929-2.929 7.678.001 10.606 1.463 1.463 3.383 2.196 5.302 2.196z"/><path d="m314.225 193.974-8.241 8.242c-2.929 2.929-2.929 7.678.001 10.606 1.464 1.464 3.384 2.196 5.303 2.196s3.839-.732 5.304-2.197l8.241-8.242c2.929-2.929 2.929-7.678-.001-10.606-2.928-2.928-7.677-2.929-10.607.001z"/><path d="m326.435 233.275c1.465 1.464 3.385 2.196 5.304 2.196s3.839-.732 5.304-2.196l8.242-8.242c2.929-2.93 2.929-7.678 0-10.607-2.93-2.928-7.678-2.928-10.607 0l-8.242 8.242c-2.93 2.929-2.93 7.677-.001 10.607z"/><path d="m61.89 425.858-13.838 13.837c-2.93 2.929-2.93 7.678-.001 10.606 2.928 2.928 7.677 2.931 10.606.001l13.838-13.837c2.93-2.929 2.93-7.678.001-10.606s-7.677-2.93-10.606-.001z"/><path d="m348.78 369.616-44.807-25.869c-5.02-2.898-11.254-2.898-16.273 0l-44.809 25.869c-5.018 2.898-8.135 8.298-8.135 14.093v51.739c0 5.795 3.117 11.194 8.136 14.093l44.808 25.869c2.51 1.449 5.323 2.173 8.137 2.173s5.627-.724 8.137-2.173l44.807-25.869c5.019-2.897 8.137-8.298 8.137-14.093v-51.739c-.002-5.795-3.12-11.195-8.138-14.093zm-6.864 65.833c0 .453-.244.876-.637 1.103l-44.807 25.869c-.393.227-.881.227-1.273 0l-44.807-25.869c-.393-.227-.637-.649-.637-1.103v-51.739c0-.453.244-.876.636-1.103l44.808-25.869c.196-.113.417-.17.637-.17s.44.057.637.17l44.807 25.869c.393.227.637.649.637 1.103v51.739z"/><path d="m295.836 381.896c-15.265 0-27.684 12.419-27.684 27.684s12.419 27.683 27.684 27.683 27.683-12.418 27.683-27.683-12.418-27.684-27.683-27.684zm0 40.366c-6.994 0-12.684-5.689-12.684-12.683s5.689-12.684 12.684-12.684c6.993 0 12.683 5.689 12.683 12.684 0 6.994-5.69 12.683-12.683 12.683z"/><path d="m423.214 349.067c0 15.265 12.419 27.684 27.684 27.684s27.683-12.419 27.683-27.684-12.418-27.683-27.683-27.683-27.684 12.418-27.684 27.683zm40.366 0c0 6.994-5.689 12.684-12.683 12.684s-12.684-5.689-12.684-12.684c0-6.993 5.689-12.683 12.684-12.683 6.994 0 12.683 5.69 12.683 12.683z"/><path d="m503.841 309.105-44.807-25.869c-5.018-2.897-11.254-2.898-16.273 0l-44.809 25.869c-5.019 2.898-8.136 8.299-8.136 14.093v51.739c0 5.794 3.117 11.194 8.137 14.093l44.807 25.869c2.51 1.449 5.323 2.174 8.138 2.174 2.813 0 5.627-.725 8.136-2.174l16.074-9.28c3.587-2.071 4.816-6.658 2.745-10.245-2.07-3.588-6.66-4.814-10.245-2.745l-16.075 9.28c-.391.227-.879.227-1.271 0l-44.807-25.869c-.394-.227-.638-.649-.638-1.103v-51.739c0-.453.244-.876.637-1.103l44.809-25.869c.391-.227.879-.227 1.271 0l44.807 25.869c.394.227.638.649.638 1.103v51.739c0 .453-.244.876-.636 1.103l-2.693 1.555c-3.588 2.07-4.817 6.657-2.746 10.244 2.07 3.589 6.658 4.815 10.244 2.746l2.695-1.556c5.019-2.897 8.136-8.298 8.136-14.092v-51.739c-.001-5.794-3.118-11.195-8.138-14.093z"/><path d="m322.554 280.089c44.431 9.216 90.304-4.315 122.577-36.588 37.988-37.986 48.732-93.366 31.268-141.294-.878-2.407-2.923-4.2-5.425-4.754-2.502-.553-5.113.208-6.926 2.019l-61.606 61.607-51.396-13.771-13.772-51.396 7.386-7.385c2.929-2.93 2.929-7.678 0-10.607-2.929-2.927-7.677-2.929-10.607 0l-10.447 10.447c-1.895 1.896-2.634 4.657-1.94 7.245l16.014 59.761c.693 2.588 2.715 4.609 5.303 5.303l59.761 16.013c2.588.692 5.35-.045 7.245-1.94l55.869-55.87c10.241 40.488-1.453 84.139-31.331 114.016-28.575 28.576-69.293 40.73-108.924 32.508-21.826-4.527-44.445 2.914-59.032 19.42l-159.29 180.214c-.023.025-.046.052-.068.078-4.959 5.769-10.955 10.296-17.821 13.454-3.764 1.73-5.411 6.185-3.68 9.947 1.733 3.768 6.188 5.409 9.947 3.68 8.823-4.058 16.526-9.866 22.895-17.264l159.256-180.176c11.031-12.483 28.174-18.107 44.744-14.667z"/><path d="m63.143 483.185c-12.371-1.004-24.021-6.393-32.801-15.174-21.48-21.478-20.41-56.832 2.898-76.867.026-.022.053-.045.078-.068l180.214-159.29c16.505-14.588 23.946-37.208 19.42-59.033-8.221-39.629 3.931-80.348 32.507-108.923 29.877-29.878 73.525-41.574 114.016-31.331l-24.219 24.218c-2.929 2.93-2.929 7.678 0 10.607 2.93 2.928 7.678 2.928 10.607 0l33.018-33.018c1.812-1.812 2.573-4.424 2.019-6.926s-2.347-4.547-4.754-5.425c-47.933-17.465-103.307-6.718-141.294 31.267-32.16 32.161-45.838 77.983-36.587 122.576 3.436 16.569-2.184 33.716-14.666 44.749l-180.178 159.258c-29.688 25.56-31.413 71.085-3.686 98.812 11.294 11.295 26.279 18.227 42.194 19.519 4.118.332 7.746-2.73 8.082-6.869.336-4.129-2.739-7.747-6.868-8.082z"/></g></symbol><symbol id="traffic-lights" viewBox="0 0 512.766 512.766"><title>traffic-lights</title><g><g fill="#c9bfc8"><path d="m358.396 406.125 24.306-37.663c2.082-3.226 5.138-5.704 8.725-7.073l19.896-7.596c4.58-1.749 7.606-6.143 7.606-11.045v-39.392c0-6.53-5.293-11.823-11.823-11.823h-48.709-98.292v148.495h77.551z"/><path d="m358.396 275.562 24.306-37.663c2.082-3.226 5.138-5.704 8.725-7.073l19.896-7.596c4.58-1.749 7.606-6.143 7.606-11.045v-39.392c0-6.53-5.293-11.823-11.823-11.823h-48.709-102.014v178.789h68.666z"/><path d="m407.104 30.406c6.53 0 11.823 5.293 11.823 11.823v39.391c0 4.903-3.026 9.297-7.606 11.045l-19.896 7.596c-3.587 1.369-6.643 3.847-8.725 7.073l-24.306 37.663-28.273 38.651h-45.043v-153.242z"/><path d="m154.37 144.999-24.306-37.663c-2.082-3.226-5.138-5.704-8.725-7.073l-19.896-7.596c-4.58-1.749-7.606-6.143-7.606-11.045v-39.393c0-6.53 5.293-11.823 11.823-11.823h48.709 80.758v162.54h-59.164z"/><path d="m105.662 160.969c-6.53 0-11.823 5.293-11.823 11.823v39.392c0 4.903 3.026 9.297 7.606 11.045l19.896 7.596c3.587 1.369 6.643 3.847 8.725 7.073l24.306 37.663 23.74 44.258h46.539v-158.85z"/><path d="m154.37 406.125-24.306-37.663c-2.082-3.226-5.138-5.704-8.725-7.073l-19.896-7.596c-4.58-1.749-7.606-6.143-7.606-11.045v-39.392c0-6.53 5.293-11.823 11.823-11.823h48.709 62.568v134.083h-54.487z"/><path d="m270.42 505.266h-28.075c-4.601 0-8.33-3.73-8.33-8.33v-98.484h44.735v98.484c.001 4.6-3.729 8.33-8.33 8.33z"/></g><g><path d="m335.49 458.867h-158.214c-12.651 0-22.906-10.255-22.906-22.906v-405.555c0-12.651 10.255-22.906 22.906-22.906h158.214c12.651 0 22.906 10.255 22.906 22.906v405.555c0 12.65-10.256 22.906-22.906 22.906z" fill="#baafb9"/><path d="m261.994 424.008c-35.588 0-64.439-28.85-64.439-64.439v-352.069h-20.279c-12.651 0-22.906 10.255-22.906 22.906v405.555c0 12.651 10.255 22.906 22.906 22.906h158.214c12.651 0 22.906-10.255 22.906-22.906v-11.953z" fill="#aa9ea9"/><g><path d="m256.383 45.208c34.87 0 63.13 28.27 63.13 63.13 0 34.87-28.26 63.14-63.13 63.14s-63.13-28.27-63.13-63.14c0-34.86 28.26-63.13 63.13-63.13z" fill="#ee6161"/></g><circle cx="256.383" cy="234.608" fill="#fee45a" r="63.13"/><path d="m311.845 204.504-18.733 2.483-2.301-5.383h-70.94l-1.238 4.197-.638-.167-17.098-1.135c-4.868 8.95-7.644 19.202-7.644 30.108 0 34.87 28.26 63.13 63.13 63.13 4.608 0 9.147-.504 13.474-1.441-25.78-5.583-45.735-26.903-49.208-53.405-.39-2.975 2.016-5.516 5.017-5.509h.056c7.896 0 15.343-3.855 19.918-10.311 2.483-3.503 6.499-5.595 10.743-5.595s8.26 2.091 10.742 5.594c4.576 6.457 12.022 10.312 19.919 10.312 4.029 0 8.034-1.015 11.606-2.947l19.894-10.794c-1.195-6.821-3.5-13.257-6.699-19.137z" fill="#fedf30"/><g><path d="m311.815 78.213-23.042-7.324h-54.48c.219-.296.431-.598.655-.89l-19.631.89-14.437 7.346c-4.864 8.948-7.627 19.204-7.627 30.104 0 34.87 28.26 63.14 63.13 63.14 4.938 0 9.798-.58 14.409-1.652-24.864-5.782-44.148-26.248-48.093-51.766-.594-3.839 1.816-7.486 5.571-8.481 5.968-1.581 14.421-4.616 17.369-8.776 2.483-3.503 6.499-5.595 10.743-5.595s8.26 2.091 10.742 5.594c4.576 6.457 12.022 10.311 19.919 10.311 4.029 0 8.034-1.014 11.601-2.943l19.9-10.789c-1.196-6.838-3.519-13.28-6.729-19.169z" fill="#e94444"/><g fill="#aa9ea9"><path d="m311.893 78.238-22.78 12.35c-1.96 1.06-4.38.47-5.67-1.35-6.01-8.48-15.9-14.03-27.06-14.03s-21.05 5.55-27.06 14.03c-1.29 1.82-3.71 2.41-5.67 1.35l-22.78-12.35c10.7-19.67 31.54-33.03 55.51-33.03s44.81 13.36 55.51 33.03z"/><path d="m311.893 204.498-22.78 12.36c-1.96 1.06-4.38.47-5.67-1.35-6.01-8.48-15.9-14.03-27.06-14.03s-21.05 5.55-27.06 14.03c-1.29 1.82-3.71 2.41-5.67 1.35l-22.78-12.36c10.7-19.67 31.54-33.02 55.51-33.02s44.81 13.35 55.51 33.02z"/></g></g><g id="XMLID_492_"><g><path d="m293.456 330.768-9.829-3.76h-43.508l-7.402 3.76h-31.817c-4.87 8.95-7.646 19.203-7.646 30.11 0 34.87 28.26 63.13 63.13 63.13s63.13-28.26 63.13-63.13c0-10.907-2.776-21.16-7.646-30.11z" fill="#97da7b"/><path d="m293.951 334.854-13.625-10.381h-1.579l-56.792 6.223-21.071.072c-4.864 8.95-7.63 19.207-7.63 30.11 0 34.87 28.26 63.13 63.13 63.13 5.043 0 9.995-.602 14.696-1.719-26.096-6.198-45.971-28.585-48.308-55.972-.133-1.555.9-2.968 2.424-3.304 5.266-1.161 16.845-4.589 20.452-9.679 2.481-3.504 6.495-5.596 10.737-5.596s8.256 2.092 10.742 5.604c4.576 6.457 12.022 10.312 19.919 10.312 4.029 0 8.034-1.015 11.606-2.947l19.894-10.794c-1.195-6.821-3.496-13.257-6.692-19.136z" fill="#80d261"/><path d="m311.893 330.768-22.78 12.36c-1.96 1.06-4.38.47-5.67-1.35-6.01-8.49-15.9-14.04-27.06-14.04s-21.05 5.55-27.06 14.04c-1.29 1.82-3.71 2.41-5.67 1.35l-22.78-12.36c10.7-19.67 31.54-33.03 55.51-33.03s44.81 13.36 55.51 33.03z" fill="#aa9ea9"/></g></g></g></g><g><path d="m389.003 111.402c1.225-1.898 2.988-3.328 5.098-4.133l19.896-7.597c7.435-2.839 12.431-10.093 12.431-18.052v-39.391c0-10.655-8.668-19.323-19.323-19.323h-42.147c-3.349-13.151-15.29-22.906-29.468-22.906h-158.214c-14.178 0-26.119 9.755-29.468 22.906h-42.147c-10.655 0-19.323 8.668-19.323 19.323v39.392c0 7.958 4.996 15.213 12.431 18.052l19.895 7.596c2.111.806 3.874 2.235 5.099 4.134l23.107 35.807v6.26h-41.208c-10.655 0-19.323 8.668-19.323 19.323v39.392c0 7.958 4.996 15.213 12.431 18.052l19.895 7.596c2.111.806 3.874 2.235 5.099 4.134l23.107 35.807v6.26h-41.208c-10.655 0-19.323 8.668-19.323 19.323v39.392c0 7.958 4.996 15.213 12.431 18.052l19.895 7.596c2.111.806 3.874 2.235 5.099 4.134l23.107 35.807v27.626c0 16.766 13.64 30.406 30.406 30.406h49.239v38.899c0 4.142 3.358 7.5 7.5 7.5s7.5-3.358 7.5-7.5v-38.899h29.735v38.899c0 4.142 3.358 7.5 7.5 7.5s7.5-3.358 7.5-7.5v-38.899h49.239c16.766 0 30.406-13.64 30.406-30.406v-27.626l23.107-35.807c1.225-1.898 2.988-3.328 5.098-4.133l19.896-7.597c7.435-2.839 12.431-10.093 12.431-18.052v-39.392c0-10.655-8.668-19.323-19.323-19.323h-41.208v-6.26l23.107-35.807c1.225-1.898 2.988-3.328 5.098-4.133l19.896-7.596c7.435-2.839 12.431-10.094 12.431-18.052v-39.392c0-10.655-8.668-19.323-19.323-19.323h-41.208v-6.26zm22.424-69.173v39.392c0 1.781-1.118 3.404-2.781 4.039l-19.896 7.597c-5.112 1.952-9.383 5.415-12.351 10.013l-10.504 16.277v-81.641h41.208c2.385 0 4.324 1.939 4.324 4.323zm-275.061 191.603c-2.967-4.598-7.238-8.061-12.351-10.013l-19.896-7.596c-1.664-.635-2.781-2.258-2.781-4.039v-39.392c0-2.384 1.939-4.323 4.323-4.323h41.208v81.639zm0 130.563c-2.967-4.598-7.238-8.061-12.351-10.013l-19.896-7.596c-1.664-.635-2.781-2.258-2.781-4.039v-39.392c0-2.384 1.939-4.323 4.323-4.323h41.208v81.639zm270.738-65.363c2.384 0 4.323 1.939 4.323 4.323v39.392c0 1.781-1.118 3.404-2.781 4.039l-19.896 7.597c-5.112 1.952-9.383 5.415-12.351 10.013l-10.504 16.277v-81.639h41.209zm0-130.563c2.384 0 4.323 1.939 4.323 4.323v39.392c0 1.78-1.118 3.404-2.781 4.039l-19.896 7.597c-5.112 1.952-9.383 5.415-12.351 10.013l-10.504 16.277v-29.523c0-4.142-3.358-7.5-7.5-7.5s-7.5 3.358-7.5 7.5v215.375c0 8.495-6.911 15.406-15.406 15.406h-158.213c-8.495 0-15.406-6.911-15.406-15.406v-348.26c0-4.142-3.358-7.5-7.5-7.5s-7.5 3.358-7.5 7.5v31.843l-10.504-16.277c-2.967-4.598-7.238-8.061-12.351-10.013l-19.896-7.596c-1.664-.635-2.781-2.258-2.781-4.039v-39.391c0-2.384 1.939-4.323 4.323-4.323h41.208v17.834c0 4.142 3.358 7.5 7.5 7.5s7.5-3.358 7.5-7.5v-25.334c0-8.495 6.911-15.406 15.406-15.406h158.215c8.495 0 15.406 6.911 15.406 15.406v158.217c0 4.142 3.358 7.5 7.5 7.5s7.5-3.358 7.5-7.5v-20.154z"/><path d="m287.984 297.734c23.12-11.616 39.033-35.535 39.033-63.125 0-27.592-15.911-51.523-39.032-63.142 23.12-11.616 39.032-35.536 39.032-63.126 0-38.947-31.686-70.633-70.634-70.633s-70.634 31.686-70.634 70.633c0 27.583 15.895 51.518 39.004 63.14-23.105 11.625-39.004 35.547-39.004 63.127 0 27.588 15.909 51.511 39.026 63.128-23.117 11.62-39.026 35.55-39.026 63.139 0 38.947 31.686 70.633 70.634 70.633 11.272 0 22.069-2.596 32.088-7.715 3.689-1.884 5.151-6.402 3.267-10.091-1.885-3.689-6.404-5.151-10.091-3.267-7.887 4.029-16.386 6.072-25.264 6.072-30.677 0-55.634-24.957-55.634-55.633 0-6.93 1.284-13.563 3.609-19.687l15.719 8.526c5.278 2.863 11.884 1.313 15.366-3.606 4.817-6.804 12.645-10.867 20.939-10.867s16.122 4.063 20.938 10.866c2.306 3.257 5.981 5.038 9.733 5.038 1.915 0 3.85-.463 5.632-1.431l15.72-8.527c2.325 6.124 3.609 12.757 3.609 19.687 0 11.006-3.215 21.651-9.296 30.785-2.296 3.448-1.362 8.104 2.086 10.399 3.448 2.296 8.103 1.362 10.399-2.086 7.727-11.604 11.811-25.125 11.811-39.099.003-27.588-15.909-51.519-39.03-63.138zm-31.601-245.026c18.391 0 34.719 8.976 44.854 22.771l-13.339 7.236c-7.695-9.444-19.281-15.007-31.515-15.007s-23.82 5.563-31.515 15.007l-13.339-7.236c10.135-13.795 26.463-22.771 44.854-22.771zm-55.634 55.633c0-6.93 1.284-13.562 3.61-19.687l15.721 8.527c1.783.967 3.717 1.43 5.631 1.43 3.752 0 7.428-1.78 9.733-5.037 4.817-6.805 12.645-10.867 20.939-10.867s16.122 4.063 20.939 10.867c3.481 4.918 10.085 6.469 15.365 3.606l15.72-8.527c2.325 6.124 3.609 12.757 3.609 19.687 0 30.677-24.957 55.634-55.634 55.634s-55.633-24.956-55.633-55.633zm55.634 70.634c18.391 0 34.719 8.976 44.854 22.771l-13.339 7.236c-7.695-9.444-19.281-15.007-31.515-15.007s-23.82 5.563-31.515 15.007l-13.339-7.236c10.135-13.795 26.463-22.771 44.854-22.771zm-55.634 55.634c0-6.93 1.284-13.563 3.61-19.687l15.719 8.526c5.277 2.862 11.883 1.312 15.366-3.606 4.817-6.805 12.645-10.867 20.939-10.867s16.122 4.063 20.939 10.867c2.306 3.257 5.98 5.037 9.733 5.037 1.914 0 3.85-.464 5.632-1.431l15.72-8.527c2.325 6.124 3.61 12.757 3.61 19.687 0 30.676-24.957 55.633-55.634 55.633s-55.634-24.956-55.634-55.632zm87.149 100.64c-7.695-9.443-19.281-15.006-31.515-15.006s-23.82 5.563-31.515 15.006l-13.339-7.235c10.134-13.795 26.462-22.771 44.854-22.771s34.719 8.976 44.854 22.771z"/><path d="m182.644 49.447c4.142 0 7.5-3.358 7.5-7.5v-4.542c0-4.142-3.358-7.5-7.5-7.5s-7.5 3.358-7.5 7.5v4.542c0 4.142 3.358 7.5 7.5 7.5z"/><path d="m330.122 29.906c-4.142 0-7.5 3.358-7.5 7.5v4.542c0 4.142 3.358 7.5 7.5 7.5s7.5-3.358 7.5-7.5v-4.542c0-4.142-3.358-7.5-7.5-7.5z"/><path d="m182.644 419.77c-4.142 0-7.5 3.358-7.5 7.5v4.542c0 4.142 3.358 7.5 7.5 7.5s7.5-3.358 7.5-7.5v-4.542c0-4.142-3.358-7.5-7.5-7.5z"/><path d="m330.122 419.77c-4.142 0-7.5 3.358-7.5 7.5v4.542c0 4.142 3.358 7.5 7.5 7.5s7.5-3.358 7.5-7.5v-4.542c0-4.142-3.358-7.5-7.5-7.5z"/></g></symbol><symbol id="books" viewBox="0 0 512 512"><title>books</title><g><g><g><g><path d="m459.893 446.387c0-15.639 11.365-28.672 26.269-31.277 3.119-.545 5.428-3.195 5.428-6.362v-13.874c0-3.645-2.955-6.6-6.6-6.6h-406.467c-32.095 0-58.113 26.018-58.113 58.113 0 32.095 26.018 58.113 58.113 58.113h406.467c3.645 0 6.6-2.955 6.6-6.6v-13.874c0-3.167-2.308-5.817-5.428-6.362-14.904-2.605-26.269-15.638-26.269-31.277z" fill="#88a8d8"/><path d="m368.14 504.5h116.85c3.645 0 6.6-2.955 6.6-6.6v-13.873c0-3.167-2.308-5.817-5.428-6.362-14.904-2.605-26.269-15.639-26.269-31.277s11.365-28.672 26.269-31.277c3.119-.545 5.428-3.195 5.428-6.362v-13.874c0-3.645-2.955-6.6-6.6-6.6h-116.861-.001c32.095 0 58.113 26.018 58.113 58.113-.001 32.09-26.012 58.105-58.101 58.112z" fill="#7296d1"/><path d="m480.644 476.172c-12.102-4.484-20.751-16.143-20.751-29.785s8.648-25.3 20.749-29.784h-402.119c-16.424 0-29.784 13.361-29.784 29.784s13.361 29.784 29.784 29.784h402.121z" fill="#f7f4f7"/><path d="m480.645 416.603h-62.617c5.211 8.711 8.212 18.896 8.212 29.784 0 10.889-3.002 21.074-8.213 29.785h62.619c-12.103-4.484-20.753-16.142-20.753-29.785 0-13.642 8.65-25.3 20.752-29.784z" fill="#e0dde0"/></g></g><g><g><path d="m52.107 330.161c0-15.008-10.468-27.618-24.485-30.912-4.259-1.001-7.212-4.889-7.212-9.263v-11.337c0-3.645 2.955-6.6 6.6-6.6h406.467c32.095 0 58.113 26.018 58.113 58.113 0 32.095-26.018 58.113-58.113 58.113h-406.467c-3.645 0-6.6-2.955-6.6-6.6v-11.337c0-4.375 2.953-8.263 7.212-9.263 14.017-3.296 24.485-15.906 24.485-30.914z" fill="#e07f84"/><path d="m433.477 272.048h-65.35c32.095 0 58.113 26.018 58.113 58.113s-26.018 58.113-58.113 58.113h65.35c32.095 0 58.113-26.018 58.113-58.113s-26.018-58.113-58.113-58.113z" fill="#db636e"/><path d="m433.477 300.376-402.116.002c12.099 4.485 20.746 16.143 20.746 29.783 0 13.642-8.648 25.3-20.75 29.784h402.12c16.424 0 29.784-13.361 29.784-29.784.001-16.424-13.36-29.785-29.784-29.785z" fill="#f7f4f7"/><path d="m433.477 300.376h-15.45c5.211 8.711 8.213 18.896 8.213 29.784s-3.002 21.073-8.212 29.784h15.449c16.424 0 29.784-13.361 29.784-29.784.001-16.423-13.36-29.784-29.784-29.784z" fill="#e0dde0"/></g></g></g><g><path d="m417.004 67.957h-80.44v27.609h72.762c3.695 0 6.69 2.995 6.69 6.69v51.353c0 17.011-13.79 30.8-30.8 30.8h-48.651v27.609h48.651c32.258 0 58.409-26.151 58.409-58.409v-59.031c-.001-14.702-11.919-26.621-26.621-26.621z" fill="#edeaed"/><path d="m280.177 272.048h-48.354c-48.551 0-87.909-39.358-87.909-87.909v-135.985c0-6.02 4.88-10.901 10.901-10.901h202.371c6.02 0 10.901 4.88 10.901 10.901v135.985c-.001 48.551-39.359 87.909-87.91 87.909z" fill="#edeaed"/><path d="m357.185 37.253h-64.811c6.021 0 10.901 4.88 10.901 10.901v135.985c0 45.775-34.989 83.373-79.681 87.523 2.71.252 5.453.387 8.229.387h48.354c48.551 0 87.909-39.359 87.909-87.909v-135.986c0-6.021-4.88-10.901-10.901-10.901z" fill="#e0dde0"/></g><path d="m233.576 166.697h-34.513c-6.237 0-11.294-5.056-11.294-11.294v-42.369c0-6.237 5.056-11.294 11.294-11.294h34.513c6.237 0 11.294 5.056 11.294 11.294v42.369c0 6.238-5.056 11.294-11.294 11.294z" fill="#b3e59f"/></g><path d="m484.989 380.774h-9.802c14.589-12.044 23.903-30.261 23.903-50.613 0-36.179-29.434-65.613-65.612-65.613h-101.997c16.687-10.685 29.842-26.419 37.3-45.029h16.434c36.343 0 65.909-29.566 65.909-65.909v-59.032c0-18.814-15.307-34.121-34.12-34.121h-41.418v-12.304c0-10.146-8.254-18.4-18.4-18.4h-90.397v-.769c-.001-15.982-13.003-28.984-28.985-28.984s-28.984 13.002-28.984 28.984v.769h-54.005c-10.146 0-18.4 8.254-18.4 18.4v16.534c0 4.142 3.357 7.5 7.5 7.5s7.5-3.358 7.5-7.5v-16.534c0-1.875 1.525-3.4 3.4-3.4h54.005v49.488h-9.757c-10.362 0-18.793 8.431-18.793 18.794v42.368c0 10.363 8.431 18.794 18.793 18.794h34.514c10.363 0 18.794-8.431 18.794-18.794v-42.368c0-10.363-8.431-18.794-18.794-18.794h-9.757v-49.488h133.366c1.875 0 3.4 1.525 3.4 3.4v135.985c0 44.338-36.071 80.409-80.409 80.409h-48.354c-44.338 0-80.409-36.071-80.409-80.409v-84.38c0-4.142-3.357-7.5-7.5-7.5s-7.5 3.358-7.5 7.5v84.38c0 33.737 17.603 63.44 44.105 80.409h-153.508c-7.775 0-14.101 6.325-14.101 14.1v11.337c0 7.955 5.344 14.767 12.995 16.564 10.767 2.53 18.701 12.294 18.701 23.611 0 11.227-7.858 21.062-18.701 23.611-7.651 1.798-12.995 8.609-12.995 16.564v11.337c0 7.775 6.325 14.1 14.101 14.1h9.802c-14.589 12.044-23.903 30.262-23.903 50.613 0 36.182 29.434 65.616 65.612 65.616h406.467c7.775 0 14.101-6.325 14.101-14.1v-13.874c0-6.789-4.895-12.572-11.636-13.75-26.486-4.63-26.694-43.113 0-47.779 6.742-1.179 11.636-6.961 11.636-13.75v-13.874c0-7.774-6.325-14.099-14.101-14.099zm-109.403-277.708h32.93v50.543c0 12.848-10.453 23.301-23.301 23.301h-9.629zm-.318 88.844h9.947c21.119 0 38.301-17.182 38.301-38.301v-51.353c0-7.824-6.365-14.19-14.189-14.19h-33.74v-12.608h41.418c10.543 0 19.12 8.578 19.12 19.121v59.032c0 28.071-22.838 50.909-50.909 50.909h-11.827c.897-4.113 1.531-8.321 1.879-12.61zm-141.692-82.669c2.092 0 3.794 1.702 3.794 3.794v42.368c0 2.092-1.702 3.794-3.794 3.794h-34.514c-2.092 0-3.793-1.702-3.793-3.794v-42.368c0-2.092 1.701-3.794 3.793-3.794zm18.212-79.488h-27.969v-.769c0-7.711 6.273-13.984 13.984-13.984s13.984 6.273 13.984 13.984v.769zm-223.878 351.021v-10.438c0-.943.6-1.768 1.427-1.962 1.125-.264 2.228-.575 3.308-.929h400.833c20.559 0 37.284-16.726 37.284-37.285s-16.726-37.284-37.284-37.284l-400.828.002c-1.082-.355-2.187-.666-3.313-.931-.827-.194-1.427-1.019-1.427-1.962v-10.438h405.567c27.907 0 50.612 22.705 50.612 50.613s-22.705 50.613-50.612 50.613h-354.955-50.612zm188.409-58.113h-157.431c-1.033-5.384-3.161-10.398-6.176-14.783l380.766-.002c12.287 0 22.284 9.997 22.284 22.284s-9.997 22.285-22.284 22.285h-380.768c3.016-4.385 5.144-9.4 6.178-14.784h157.432c4.143 0 7.5-3.358 7.5-7.5s-3.358-7.5-7.501-7.5zm267.771 85.205c-1.619.316-3.195.734-4.729 1.237h-83.878c-4.143 0-7.5 3.358-7.5 7.5s3.357 7.5 7.5 7.5h63.823c-3.018 4.382-5.15 9.399-6.189 14.784h-157.277c-4.143 0-7.5 3.358-7.5 7.5s3.357 7.5 7.5 7.5h157.276c1.039 5.385 3.172 10.402 6.189 14.784h-380.782c-12.288 0-22.285-9.997-22.285-22.284s9.997-22.284 22.285-22.284h281.888c4.143 0 7.5-3.358 7.5-7.5s-3.357-7.5-7.5-7.5h-281.888c-20.56 0-37.285 16.726-37.285 37.284s16.726 37.284 37.285 37.284h400.837c1.534.503 3.11.92 4.729 1.237v12.092h-405.567c-27.907 0-50.612-22.705-50.612-50.613s22.705-50.613 50.612-50.613h354.955 50.612v12.092z"/></symbol><symbol id="apple" viewBox="0 0 415.2 415.2"><title>apple</title><g> <path style="fill:#C1D963;" d="M148.474,103.2c-28.8,0-60-23.2-92-68l-12-17.6l20.8,4.8c29.6,7.2,85.6,22.4,122.4,51.2l7.2,5.6 l-7.2,7.2C177.274,96.8,162.874,103.2,148.474,103.2z"/> <path style="fill:#C1D963;" d="M178.874,68c-31.2-19.2-64.8-33.6-100-41.6l0.8-16c11.2-2.4,23.2-3.2,34.4-3.2 c27.2,0,48,7.2,61.6,20c8,8.8,13.6,20,15.2,32l3.2,18.4L178.874,68z"/> <path style="fill:#C1D963;" d="M349.274,167.2c-16-17.6-41.6-27.2-74.4-27.2c-20.8,0-40.8,3.2-60.8,8.8h-0.8 c-20-5.6-40-8.8-60.8-8.8c-33.6,0-58.4,8.8-74.4,27.2s-24,47.2-20,84c11.2,113.6,64.8,153.6,112,153.6c16,0,31.2-4.8,44-14.4 c12.8,9.6,28,14.4,44,14.4c47.2,0,101.6-40,112-153.6C373.274,214.4,366.074,185.6,349.274,167.2z"/> </g><path style="fill:#1B1300;" d="M274.874,132.8c-17.6,0-36,2.4-53.6,6.4c-0.8-30.4,6.4-60.8,19.2-88c2.4-4,0.8-8.8-3.2-11.2 c-4-2.4-8.8-0.8-11.2,3.2c-7.2,13.6-12,28-15.2,43.2c-3.2-4-7.2-7.2-10.4-11.2c0.8-19.2-6.4-38.4-19.2-52.8 c-14.4-15.2-37.6-22.4-67.2-22.4c-24.8,0.8-48.8,4.8-72,12c0,0-0.8,0-0.8,0.8c-0.8,0-0.8,0.8-1.6,0.8l-0.8,0.8 c-0.8,0.8-0.8,0.8-0.8,1.6c0,0,0,0.8-0.8,0.8s0,0.8,0,0.8v0.8c0,0.8,0,0.8,0,1.6c0,0.8,0,0.8,0,1.6c0,0.8,0.8,1.6,0.8,2.4v0.8 c37.6,58.4,75.2,88,110.4,88c17.6,0,33.6-7.2,45.6-20c4.8,4.8,8.8,10.4,12.8,16v0.8c-1.6,10.4-1.6,20.8-1.6,31.2 c-17.6-4-35.2-6.4-52.8-6.4c-36,0-62.4,9.6-80.8,29.6s-26.4,50.4-22.4,90.4c11.2,118.4,69.6,160.8,120,160.8c15.2,0,30.4-4,44-12.8 c12.8,8,28,12.8,44,12.8l0,0c50.4,0,108.8-42.4,120-160.8c4-39.2-4-69.6-22.4-90.4S310.074,132.8,274.874,132.8z M148.474,95.2 c-26.4,0-55.2-22.4-85.6-64c28.8,6.4,84,22.4,119.2,49.6C173.274,89.6,161.274,95.2,148.474,95.2L148.474,95.2z M80.474,19.2 c11.2-1.6,22.4-3.2,33.6-3.2c25.6,0,44,6.4,56,18.4c7.2,8,12,17.6,13.6,28C151.674,41.6,117.274,27.2,80.474,19.2z M361.274,250.4 c-10.4,108-60.8,146.4-104,146.4c-13.6,0-28-4-39.2-12.8c-3.2-2.4-7.2-2.4-9.6,0c-11.2,8-24.8,12.8-39.2,12.8 c-43.2,0-93.6-38.4-104-146.4c-3.2-34.4,3.2-60.8,18.4-77.6c15.2-16.8,37.6-24,68.8-24c20,0,39.2,3.2,58.4,8.8c0.8,0,1.6,0,2.4,0 h0.8h0.8h0.8c19.2-5.6,38.4-8,58.4-8.8c31.2,0,54.4,8,68.8,24S364.474,216,361.274,250.4L361.274,250.4z"/><path style="fill:#FFFFFF;" d="M129.274,168.8c-27.2,10.4-43.2,37.6-40.8,66.4c0.8,4,4,7.2,8,7.2h0.8c4-0.8,7.2-4,7.2-8.8l0,0 c-2.4-21.6,10.4-41.6,30.4-49.6c4-1.6,6.4-6.4,4.8-10.4S133.274,167.2,129.274,168.8L129.274,168.8L129.274,168.8z"/></symbol><symbol id="ancient" viewBox="0 0 512 512"><title>ancient</title><g><g clip-rule="evenodd" fill-rule="evenodd"><path d="m7.5 114.499h345.999l-50.52-31.562-50.777-9.227-9.33-39.02-24.146-27.19h-22.499z" fill="#adb9c8"/><path d="m7.5 114.499h345.999v60h-345.999z" fill="#e5ecf5"/><path d="m384.5 414.5h75v-82.501l-30-30.001v-27.128l-45-25.372zm-332 0h75v-210.001h-75v120.002l15 30-15 30zm166 0h75v-210.001h-75z" fill="#e5ecf5"/><path d="m7.5 504.5h497v-30h-15v-30.001h-467v30.001h-15z" fill="#e5ecf5"/><path d="m7.5 114.499h30l183.738-104.171-2.512-2.828h-22.499z" fill="#72869e"/><path d="m7.5 114.499h22.5v60h-22.5z" fill="#b0c5e0"/><path d="m52.5 414.5h22.5v-30l15-30-15-30v-120.001h-22.5v120.002l15 30-15 30zm332 0h22.5v-152.316l-22.5-12.686zm-166 0h22.5v-210.001h-22.5z" fill="#b0c5e0"/><path d="m474.5 444.499v-30h-105v30zm-332.001-240v-30h-105v30zm166.001 0v-30h-105v30zm-166.001 240v-30h-105v30zm166.001 0v-30h-105v30z" fill="#adb9c8"/><path d="m392 414.5h-22.5v30h22.5zm-166 0h-22.5v30h22.5zm-166 0h-22.5v30h22.5zm166-240.001h-22.5v30h22.5zm-166 0h-22.5v30h22.5z" fill="#72869e"/><path d="m7.5 504.5h22.5v-30h15v-30.001h-22.5v30.001h-15z" fill="#b0c5e0"/></g><g><path d="m437.001 354.499h-15v-15h15zm-166.001-112.5h-15v-15h15zm-166 0h-15v-15h15zm106.227-196.999h-15v-15h15z" fill="#fff"/></g></g><g><path d="m497 467v-30h-15v-30h-15v-30h-15v30h-60v-144.664l30.001 16.916v25.853l29.999 30v26.895h15v-33.107l-29.999-30v-28.403l-60.001-33.83v170.34h-14.999v30h-46.001v-30h-15v-195.001h15v-30h44.999v-71.658l-55.265-34.527-47.376-8.608-8.63-36.089-27.631-31.117h-27.849l-194.248 110.13v71.869h30v30h15v45h15v-45h60v195.001h-60v-20.729l15.884-31.771-15.884-31.77v-50.732h-15v54.273l14.114 28.229-14.114 28.229v24.271h-15v30h-15v30h-15v45h512v-45zm-119.999-45h89.999v15h-89.999zm-166.001 15v-15h90v15zm75-30h-60v-195.001h60zm15-210.001h-90v-15h90zm-102.795-181.999h17.151l20.659 23.264 10.03 41.95 54.179 9.844 27.115 16.94h-291.404l67.906-38.5h42.772l12 23.5h19.592v-14.998h-10.408l-12-23.5h-25.498zm-183.205 106.999h330.999v45h-330.999zm119.999 60v15h-89.999v-15zm.001 30h14.999v-30h46.001v30h15v195.001h-15v30h-46.001v-30h-14.999zm-90 210.001h89.999v15h-89.999zm452 75h-482v-15h151.001v-15h-136.001v-15h452v15h-300.999v15h315.999z"/><path d="m193.204 77h15v15h-15z"/></g></symbol><symbol id="caliper" viewBox="0 0 511.862 511.862"><title>caliper</title><g><path d="m89.35 376.944-34.142 34.142 83.435 83.436 132.565-132.565-83.435-83.435-35.559 35.558z" fill="#e0e7ef"/></g><g><path d="m456.654 176.514-99.03-99.029-115.211-67.485-25.233 25.233 106.941 106.941-75.039 75.04 27.038 27.038 5.665 59.142 23.993 23.994z" fill="#e0e7ef"/></g><g><path d="m452.645 287.359-1.857 12.312-58.647-58.647 34.054-34.054c21.079 21.078 30.895 50.913 26.45 80.389z" fill="#9ebccf"/></g><g><path d="m281.785 303.394-5.665-59.142-133.984-133.976-22.904 22.904 68.54 145.342 83.135 83.135c21.246 21.246 51.376 31.04 81.053 26.347l12.462-1.971z" fill="#9ebccf"/></g><g><circle cx="179.659" cy="72.754" fill="#00d5f5" r="53.063"/></g><g><path d="m72.821 495.726-.322-.322c-8.366-8.366-8.366-21.929 0-30.294l18.366-18.366 30.616 30.616-18.366 18.366c-8.365 8.365-21.928 8.365-30.294 0z" fill="#9ebccf"/></g><g><path d="m466.654 176.514c0-2.652-1.054-5.196-2.929-7.071l-99.029-99.03c-.604-.603-1.281-1.126-2.017-1.558l-115.212-67.484c-3.926-2.299-8.909-1.658-12.125 1.558l-18.728 18.728c-24.638-17.839-59.364-15.676-81.547 6.505-22.181 22.182-24.344 56.908-6.504 81.547l-16.4 16.401c-2.984 2.984-3.773 7.52-1.974 11.336l65.54 138.98-30.585 30.585c-3.905 3.905-3.905 10.237 0 14.143s10.237 3.905 14.143 0l28.487-28.488 69.293 69.293-29.094 29.094-14.373-14.374c-3.905-3.905-10.237-3.905-14.143 0-3.905 3.905-3.905 10.237 0 14.143l14.372 14.372-29.808 29.808-14.371-14.372c-3.905-3.905-10.237-3.905-14.143 0s-3.905 10.237 0 14.143l14.372 14.372-31.236 31.236-69.293-69.295 27.071-27.071c3.905-3.905 3.905-10.237 0-14.142s-10.237-3.905-14.143 0l-34.142 34.142c-3.905 3.905-3.905 10.237 0 14.143l28.586 28.586-11.295 11.295c-12.25 12.251-12.25 32.185 0 44.437 11.975 12.437 32.593 12.486 44.759.321l11.294-11.295 10.091 10.091c3.82 3.819 10.314 3.827 14.143 0l125.868-125.868c18.584 15.154 41.941 23.422 65.826 23.421 5.36 0 10.749-.417 16.114-1.265l12.462-1.971c7.885-1.247 11.156-11.301 5.509-16.949l-51.575-51.574 72.222-72.221 51.575 51.575c5.664 5.663 15.773 2.293 16.959-5.58l1.856-12.312c4.397-29.158-3.981-58.938-22.546-81.528l23.737-23.737c1.879-1.874 2.933-4.417 2.933-7.07zm-370.609 312.141c-4.61 4.61-12.003 4.168-16.474-.321-4.453-4.454-4.453-11.699 0-16.152l11.295-11.295 16.474 16.474zm85.697-352.918c15.448-.506 30.744-6.626 42.509-18.391 11.412-11.411 17.894-26.428 18.42-42.48l67.309 67.309-60.899 60.898zm-32.534-93.433c16.572-16.571 44.346-16.573 60.91.01 16.582 16.592 16.579 44.3-.01 60.889-16.574 16.573-44.32 16.58-60.9 0-16.59-16.59-16.592-44.307 0-60.899zm128.807 312.317-81.94-81.94-64.797-137.404 10.859-10.859 124.372 124.365 5.322 55.565c.213 2.224 1.309 4.543 2.883 6.118l68.48 68.48c-24.052 1.675-47.981-7.147-65.179-24.325zm165.531-76.335-37.261-37.261 19.484-19.484c12.582 16.057 18.957 36.338 17.777 56.745zm-51.405-51.405-14.372-14.371c-3.905-3.905-10.237-3.905-14.142 0s-3.905 10.237 0 14.142l14.373 14.373-27.665 27.665-14.372-14.372c-3.905-3.905-10.237-3.905-14.142 0s-3.905 10.237 0 14.142l14.372 14.372-30.415 30.414-14.381-14.381-5.322-55.565c-.222-2.312-1.241-4.475-2.884-6.118l-19.967-19.967 67.969-67.968c3.819-3.82 3.827-10.314 0-14.143l-99.871-99.871 12.701-12.701 107.439 62.932 91.05 91.05z"/><path d="m112.791 350.74c5.067 7.748 17.333 4.496 18.259-4.57.9-8.817-9.809-14.283-16.478-8.548-3.779 3.25-4.538 8.98-1.781 13.118z"/></g></symbol><symbol id="loading" viewBox="0 0 511.884 511.884"><title>loading</title><g><path d="m255.942 97.5c-8.284 0-15-6.716-15-15v-60c0-8.284 6.716-15 15-15 8.284 0 15 6.716 15 15v60c0 8.284-6.716 15-15 15z" fill="#799ea8"/><path d="m255.942 504.5c-8.284 0-15-6.716-15-15v-60c0-8.284 6.716-15 15-15 8.284 0 15 6.716 15 15v60c0 8.284-6.716 15-15 15z" fill="#cfdbe4"/></g><g><path d="m176.692 118.735c-7.174 4.142-16.348 1.684-20.49-5.49l-30-51.962c-4.142-7.174-1.684-16.348 5.49-20.49 7.174-4.142 16.348-1.684 20.49 5.49l30 51.962c4.142 7.174 1.684 16.348-5.49 20.49z" fill="#8eb1bf"/><path d="m380.192 471.207c-7.174 4.142-16.348 1.684-20.49-5.49l-30-51.962c-4.142-7.174-1.684-16.348 5.49-20.49 7.174-4.142 16.348-1.684 20.49 5.49l30 51.962c4.142 7.174 1.684 16.348-5.49 20.49z" fill="#e0ebf0"/></g><g><path d="m118.677 176.75c-4.142 7.174-13.316 9.633-20.49 5.49l-51.962-30c-7.174-4.142-9.633-13.316-5.49-20.49 4.142-7.174 13.316-9.633 20.49-5.49l51.962 30c7.174 4.142 9.632 13.316 5.49 20.49z" fill="#8eb1bf"/><path d="m471.149 380.25c-4.142 7.174-13.316 9.633-20.49 5.49l-51.962-30c-7.174-4.142-9.633-13.316-5.49-20.49 4.142-7.174 13.316-9.633 20.49-5.49l51.962 30c7.174 4.142 9.632 13.316 5.49 20.49z" fill="#e0ebf0"/></g><g><path d="m97.442 256c0 8.284-6.716 15-15 15h-60c-8.284 0-15-6.716-15-15 0-8.284 6.716-15 15-15h60c8.284 0 15 6.716 15 15z" fill="#8eb1bf"/><path d="m504.442 256c0 8.284-6.716 15-15 15h-60c-8.284 0-15-6.716-15-15 0-8.284 6.716-15 15-15h60c8.284 0 15 6.716 15 15z" fill="#e0ebf0"/></g><g><path d="m118.677 335.25c4.142 7.174 1.684 16.348-5.49 20.49l-51.962 30c-7.174 4.142-16.348 1.684-20.49-5.49-4.142-7.174-1.684-16.348 5.49-20.49l51.962-30c7.174-4.143 16.348-1.684 20.49 5.49z" fill="#cfdbe4"/></g><g><path d="m176.692 393.265c7.174 4.142 9.633 13.316 5.49 20.49l-30 51.962c-4.142 7.174-13.316 9.633-20.49 5.49-7.174-4.142-9.633-13.316-5.49-20.49l30-51.962c4.142-7.174 13.316-9.632 20.49-5.49z" fill="#cfdbe4"/><path d="m380.192 40.793c7.174 4.142 9.633 13.316 5.49 20.49l-30 51.962c-4.142 7.174-13.316 9.633-20.49 5.49-7.174-4.142-9.633-13.316-5.49-20.49l30-51.962c4.142-7.174 13.315-9.632 20.49-5.49z" fill="#658b96"/></g><g><path d="m255.942 0c-12.406 0-22.5 10.094-22.5 22.5v7.5c.344 9.931 14.66 9.923 15 0v-7.5c.353-9.929 14.65-9.922 15 0v60c-.353 9.929-14.65 9.922-15 0v-17.27c-.344-9.931-14.66-9.923-15 0v17.27c1.24 29.857 43.771 29.834 45 0v-60c0-12.406-10.094-22.5-22.5-22.5z"/><path d="m255.942 407c-12.406 0-22.5 10.094-22.5 22.5v60c1.24 29.857 43.771 29.834 45 0v-60c0-12.406-10.094-22.5-22.5-22.5zm7.5 82.5c-.353 9.929-14.65 9.922-15 0v-60c.353-9.929 14.65-9.922 15 0z"/><path d="m158.677 42.534c-3.004-5.206-7.856-8.929-13.662-10.484-5.805-1.556-11.869-.757-17.072 2.248-5.206 3.004-8.929 7.856-10.484 13.662-1.556 5.805-.757 11.868 2.248 17.073l30 51.96c6.236 10.841 20.174 14.386 30.734 8.237h.001c10.745-6.204 14.439-19.992 8.235-30.736zm14.265 69.706c-1.736 1.002-3.756 1.267-5.691.749-1.935-.519-3.552-1.76-4.554-3.495l-30-51.961c-1.002-1.735-1.268-3.757-.75-5.691.519-1.935 1.76-3.552 3.495-4.554 1.739-1.005 3.77-1.265 5.691-.75 1.935.519 3.552 1.76 4.554 3.495l30 51.961c2.068 3.582.837 8.178-2.745 10.246z"/><path d="m362.177 395.007c-6.201-10.746-19.988-14.441-30.735-8.237-10.745 6.204-14.439 19.992-8.235 30.736l30 51.96c3.004 5.206 7.856 8.929 13.662 10.484 5.765 1.55 11.858.768 17.073-2.248 5.205-3.005 8.928-7.856 10.483-13.662 1.556-5.805.757-11.868-2.248-17.073zm17.76 65.151c-.519 1.935-1.76 3.552-3.494 4.554-.001 0-.001 0-.001 0-1.735 1.002-3.756 1.269-5.691.75s-3.552-1.76-4.554-3.495l-30-51.961c-2.068-3.582-.837-8.178 2.744-10.246 1.74-1.005 3.77-1.265 5.692-.749 1.935.519 3.552 1.76 4.554 3.495l30 51.961c1.002 1.735 1.268 3.757.75 5.691z"/><path d="m42.475 158.735 51.961 30c10.559 6.15 24.498 2.605 30.736-8.235 0 0 0 0 0-.001 6.203-10.745 2.508-24.532-8.236-30.734l-51.961-30c-5.204-3.005-11.271-3.804-17.073-2.248-5.806 1.556-10.658 5.278-13.662 10.483-3.005 5.205-3.804 11.269-2.248 17.073 1.555 5.806 5.278 10.658 10.483 13.662zm4.755-23.236c1.002-1.734 2.619-2.976 4.554-3.494 1.922-.515 3.953-.255 5.691.75l51.962 30c3.533 1.945 4.832 6.795 2.745 10.245-2.067 3.582-6.665 4.812-10.246 2.745l-51.962-30c-1.734-1.002-2.976-2.619-3.494-4.554-.518-1.934-.252-3.956.75-5.692z"/><path d="m469.41 353.265-2.709-1.564c-3.589-2.07-8.174-.843-10.246 2.744-2.071 3.587-.843 8.174 2.744 10.246l2.711 1.564c1.734 1.002 2.976 2.619 3.494 4.554s.252 3.956-.75 5.692c-1.002 1.734-2.619 2.976-4.554 3.494-1.935.517-3.956.251-5.691-.75l-51.962-30c-1.734-1.002-2.976-2.619-3.494-4.554-.519-1.936-.252-3.957.749-5.691 2.068-3.581 6.667-4.811 10.246-2.745l18.939 10.935c3.588 2.069 8.175.842 10.245-2.745 2.071-3.587.842-8.174-2.745-10.245l-18.939-10.935c-10.741-6.203-24.532-2.51-30.736 8.236-6.203 10.745-2.508 24.532 8.236 30.734l51.961 30c5.215 3.016 11.309 3.798 17.073 2.248 5.806-1.556 10.658-5.278 13.662-10.483 3.005-5.205 3.804-11.269 2.248-17.073-1.556-5.806-5.278-10.658-10.482-13.662z"/><path d="m104.942 256c0-12.406-10.094-22.5-22.5-22.5h-18.27c-9.931.344-9.923 14.66 0 15h18.27c9.929.353 9.922 14.65 0 15h-60c-9.929-.353-9.922-14.65 0-15h11.27c9.931-.344 9.923-14.66 0-15h-11.27c-29.857 1.24-29.834 43.771 0 45h60c12.406 0 22.5-10.094 22.5-22.5z"/><path d="m489.442 233.5h-60c-29.857 1.24-29.834 43.771 0 45h60c29.856-1.24 29.833-43.771 0-45zm0 30h-60c-9.929-.353-9.922-14.65 0-15h60c9.929.353 9.921 14.65 0 15z"/><path d="m125.172 331.501c0-.001 0-.001 0 0-6.204-10.746-19.992-14.438-30.736-8.236l-51.96 30c-5.206 3.004-8.929 7.856-10.484 13.662-1.556 5.805-.757 11.868 2.248 17.072 3.004 5.206 7.856 8.929 13.662 10.484 5.765 1.55 11.858.768 17.073-2.248l51.96-30c10.745-6.202 14.44-19.989 8.237-30.734zm-12.241 13.19c-.519 1.935-1.76 3.552-3.495 4.554l-51.961 30c-1.736 1.001-3.758 1.267-5.691.75-3.915-.963-6.426-5.315-5.304-9.187.519-1.935 1.76-3.552 3.495-4.554l51.961-30c3.52-2.051 8.166-.868 10.246 2.745 1.001 1.736 1.268 3.758.749 5.692z"/><path d="m180.442 386.77c-10.746-6.202-24.534-2.508-30.735 8.236l-30 51.961c-3.005 5.205-3.804 11.269-2.248 17.073 1.556 5.806 5.278 10.658 10.483 13.662 5.215 3.016 11.309 3.798 17.073 2.248 5.806-1.556 10.658-5.278 13.662-10.483l30-51.961c6.204-10.744 2.51-24.532-8.235-30.736zm-4.755 23.236-30 51.962c-1.002 1.734-2.619 2.976-4.554 3.494-1.935.517-3.957.251-5.692-.75-1.734-1.002-2.976-2.619-3.494-4.554s-.252-3.956.75-5.691l30-51.962c1.002-1.734 2.619-2.976 4.554-3.494 1.921-.516 3.953-.256 5.691.749 3.582 2.068 4.813 6.664 2.745 10.246z"/><path d="m331.443 125.23c10.56 6.149 24.498 2.603 30.734-8.236l30-51.961c3.005-5.205 3.804-11.269 2.248-17.073-1.556-5.806-5.278-10.657-10.483-13.662-5.205-3.006-11.27-3.805-17.073-2.248-5.806 1.556-10.658 5.278-13.662 10.483l-30 51.961c-6.205 10.744-2.51 24.532 8.236 30.736zm4.754-23.236 30-51.962c1.002-1.734 2.619-2.976 4.554-3.494 1.922-.515 3.953-.255 5.691.75h.001c1.734 1.002 2.976 2.619 3.494 4.554s.252 3.956-.75 5.691l-30 51.962c-1.002 1.734-2.619 2.976-4.554 3.494-1.938.517-3.958.252-5.691-.749-3.582-2.068-4.814-6.664-2.745-10.246z"/></g></symbol><symbol id="location" viewBox="-95 0 423 423.25333"><title>location</title><path d="m225.40625 375.464844c0-22.621094-48.902344-40.957032-109.226562-40.957032-60.324219 0-109.226563 18.335938-109.226563 40.957032 0 22.625 48.902344 40.960937 109.226563 40.960937 60.324218 0 109.226562-18.335937 109.226562-40.960937zm0 0" fill="#ddd"/><path d="m116.179688 423.253906c-56.261719 0-116.054688-16.746094-116.054688-47.789062 0-31.039063 59.792969-47.785156 116.054688-47.785156 56.261718 0 116.054687 16.746093 116.054687 47.785156 0 31.042968-59.792969 47.789062-116.054687 47.789062zm0-81.921875c-58.605469 0-102.398438 18.023438-102.398438 34.132813 0 16.113281 43.792969 34.136718 102.398438 34.136718 58.605468 0 102.398437-18.023437 102.398437-34.136718 0-16.109375-43.792969-34.132813-102.398437-34.132813zm0 0"/><path d="m177.621094 368.640625c0-11.3125-27.507813-20.480469-61.441406-20.480469-33.933594 0-61.441407 9.167969-61.441407 20.480469 0 11.308594 27.507813 20.480469 61.441407 20.480469 33.933593 0 61.441406-9.171875 61.441406-20.480469zm0 0" fill="#288eea"/><path d="m116.179688 395.945312c-32.878907 0-68.265626-8.546874-68.265626-27.304687 0-18.761719 35.386719-27.308594 68.265626-27.308594 32.882812 0 68.265624 8.546875 68.265624 27.308594 0 18.757813-35.382812 27.304687-68.265624 27.304687zm0-40.957031c-35.832032 0-54.613282 10.140625-54.613282 13.652344s18.78125 13.652344 54.613282 13.652344c35.832031 0 54.613281-10.140625 54.613281-13.652344s-18.78125-13.652344-54.613281-13.652344zm0 0"/><path d="m127.289062 109.226562h-22.21875c-39.105468 0-70.808593 31.703126-70.808593 70.808594v93.03125h40.957031v95.574219h81.921875v-95.574219h40.960937v-93.03125c0-39.105468-31.703124-70.808594-70.8125-70.808594zm0 0" fill="#ee5281"/><path d="m157.140625 375.464844h-81.921875c-3.773438 0-6.824219-3.054688-6.824219-6.824219v-88.746094h-34.132812c-3.773438 0-6.828125-3.058593-6.828125-6.828125v-93.03125c0-42.808594 34.824218-77.636718 77.632812-77.636718h22.226563c42.808593 0 77.632812 34.828124 77.632812 77.636718v93.03125c0 3.769532-3.050781 6.828125-6.824219 6.828125h-34.136718v88.746094c0 3.769531-3.050782 6.824219-6.824219 6.824219zm-75.09375-13.652344h68.265625v-88.746094c0-3.769531 3.054688-6.828125 6.828125-6.828125h34.132813v-86.203125c0-35.277344-28.699219-63.980468-63.980469-63.980468h-22.226563c-35.28125 0-63.980468 28.703124-63.980468 63.980468v86.203125h34.132812c3.773438 0 6.828125 3.058594 6.828125 6.828125zm0 0"/><path d="m170.792969 61.441406c0 30.160156-24.449219 54.613282-54.613281 54.613282-30.160157 0-54.613282-24.453126-54.613282-54.613282 0-30.164062 24.453125-54.613281 54.613282-54.613281 30.164062 0 54.613281 24.449219 54.613281 54.613281zm0 0" fill="#ee5281"/><path d="m116.179688 122.878906c-33.878907 0-61.441407-27.5625-61.441407-61.4375 0-33.878906 27.5625-61.441406 61.441407-61.441406 33.882812 0 61.441406 27.5625 61.441406 61.441406 0 33.875-27.558594 61.4375-61.441406 61.4375zm0-109.226562c-26.347657 0-47.785157 21.4375-47.785157 47.789062 0 26.347656 21.4375 47.785156 47.785157 47.785156 26.347656 0 47.785156-21.4375 47.785156-47.785156 0-26.351562-21.4375-47.789062-47.785156-47.789062zm0 0"/><path d="m157.140625 314.027344c-3.773437 0-6.828125-3.058594-6.828125-6.828125v-68.265625c0-3.769532 3.054688-6.828125 6.828125-6.828125s6.824219 3.058593 6.824219 6.828125v68.265625c0 3.769531-3.050782 6.828125-6.824219 6.828125zm0 0"/><path d="m75.21875 327.679688c-3.773438 0-6.824219-3.054688-6.824219-6.828126v-81.917968c0-3.769532 3.050781-6.828125 6.824219-6.828125s6.828125 3.058593 6.828125 6.828125v81.917968c0 3.773438-3.054687 6.828126-6.828125 6.828126zm0 0"/></symbol></svg>